<svg width="103" height="96" viewBox="0 0 103 96" fill="none" xmlns="http://www.w3.org/2000/svg">
<circle cx="51.0001" cy="48" r="48" fill="#005DF2"/>
<circle cx="51.0001" cy="48" r="44" fill="#77ACFF"/>
<circle cx="51.0001" cy="48" r="26" fill="white"/>
<circle cx="51.0001" cy="48" r="22" fill="#B3D0FF"/>
<rect x="6.10352e-05" y="36" width="103" height="23" rx="5" fill="#005DF2"/>
<path d="M27.1271 27.4232C26.5662 27.9427 25.9754 28.2597 25.3545 28.3743C24.7337 28.4888 24.1161 28.4211 23.5018 28.1711C22.89 27.9187 22.3159 27.503 21.7796 26.9238C21.2432 26.3447 20.8726 25.7405 20.6678 25.1112C20.4656 24.4795 20.4454 23.8585 20.6071 23.2483C20.7689 22.6381 21.1302 22.0732 21.6911 21.5538C22.3433 20.9498 23.0327 20.619 23.7596 20.5613C24.489 20.5012 25.193 20.6779 25.8716 21.0914L25.3373 21.9351C24.8335 21.6215 24.3219 21.4798 23.8024 21.5102C23.283 21.5406 22.7846 21.7769 22.3072 22.219C21.8872 22.608 21.6258 23.0269 21.523 23.4759C21.4203 23.9248 21.4567 24.3854 21.6324 24.8576C21.8056 25.3272 22.0998 25.7888 22.5152 26.2425C22.9281 26.6936 23.3633 27.0248 23.8207 27.2361C24.2756 27.4447 24.7333 27.5151 25.1938 27.4472C25.6519 27.3768 26.091 27.147 26.511 26.758C26.9884 26.3159 27.2621 25.837 27.3322 25.3214C27.3999 24.8032 27.2978 24.2823 27.026 23.7586L27.9082 23.2905C28.2661 23.9961 28.3884 24.7116 28.275 25.4368C28.1619 26.1571 27.7792 26.8192 27.1271 27.4232Z" fill="white"/>
<path d="M31.2504 23.9843L27.3828 17.3492L31.5758 14.9051L32.0297 15.6838L28.6569 17.6499L29.8682 19.7279L32.6881 18.0842L33.142 18.8629L30.3221 20.5066L31.6166 22.7275L34.9895 20.7615L35.4434 21.5402L31.2504 23.9843Z" fill="white"/>
<path d="M37.8641 20.5237L35.4827 13.2222L38.3678 12.2812C38.4388 12.2581 38.5244 12.2339 38.6246 12.2087C38.7238 12.1801 38.8217 12.1594 38.9185 12.1465C39.3338 12.0783 39.7092 12.1055 40.0446 12.228C40.3834 12.3494 40.6727 12.5486 40.9127 12.8256C41.1515 13.0992 41.3344 13.4304 41.4612 13.8192C41.6453 14.3837 41.6581 14.9218 41.4996 15.4335C41.34 15.9418 40.9934 16.341 40.4597 16.631L40.1331 16.7992L37.8869 17.5318L38.7667 20.2293L37.8641 20.5237ZM42.2095 19.1064L39.8004 16.6048L40.6035 16.0399L43.2439 18.769L42.2095 19.1064ZM37.6074 16.6749L39.5595 16.0382C39.6237 16.0173 39.6953 15.9902 39.7742 15.957C39.8565 15.9226 39.9321 15.8849 40.001 15.8437C40.2166 15.7136 40.3739 15.5538 40.4729 15.3644C40.5743 15.1706 40.6273 14.9663 40.6321 14.7515C40.6357 14.5334 40.6045 14.323 40.5383 14.1202C40.4722 13.9173 40.3739 13.7306 40.2434 13.56C40.1119 13.386 39.948 13.2506 39.7519 13.1537C39.5591 13.0558 39.3379 13.0195 39.0881 13.0448C39.0071 13.0488 38.9238 13.0629 38.8382 13.0871C38.7549 13.1068 38.6811 13.1271 38.6169 13.1481L36.6647 13.7848L37.6074 16.6749Z" fill="white"/>
<path d="M47.5603 18.2193L46.8646 11.4764L44.2598 11.7452L44.1673 10.8486L50.3213 10.2137L50.4138 11.1102L47.8089 11.379L48.5046 18.1219L47.5603 18.2193Z" fill="white"/>
<path d="M53.3151 18.0799L53.7886 10.4145L54.7361 10.4731L54.2626 18.1384L53.3151 18.0799Z" fill="white"/>
<path d="M57.5576 18.5239L59.2285 11.0279L63.6012 12.0026L63.3946 12.9292L59.9486 12.161L59.4229 14.5192L62.2443 15.1481L62.0378 16.0747L59.2164 15.4457L58.4842 18.7305L57.5576 18.5239Z" fill="white"/>
<path d="M64.4921 20.4932L67.3191 13.3524L68.2017 13.7019L65.3747 20.8426L64.4921 20.4932Z" fill="white"/>
<path d="M68.3735 22.2074L72.3316 15.6259L76.4907 18.1273L76.0262 18.8997L72.6806 16.8876L71.441 18.9489L74.2381 20.6311L73.7735 21.4035L70.9764 19.7213L69.6515 21.9243L72.9971 23.9363L72.5326 24.7087L68.3735 22.2074Z" fill="white"/>
<path d="M74.5878 26.3425L79.8448 20.7437L81.5711 22.3647C81.6282 22.4182 81.7267 22.5132 81.8669 22.6497C82.007 22.7861 82.1333 22.9242 82.2459 23.0641C82.6252 23.5276 82.8383 24.0252 82.8853 24.557C82.9372 25.0886 82.8509 25.6221 82.6263 26.1574C82.4016 26.6927 82.0654 27.1988 81.6176 27.6757C81.1698 28.1527 80.6858 28.5201 80.1657 28.7779C79.6456 29.0358 79.1174 29.1568 78.5811 29.141C78.0498 29.125 77.541 28.9423 77.0546 28.5929C76.9104 28.4867 76.7633 28.3681 76.6133 28.237C76.4683 28.1057 76.3685 28.0145 76.3141 27.9634L74.5878 26.3425ZM75.92 26.3496L76.9347 27.3025C77.0332 27.3949 77.1458 27.4958 77.2725 27.605C77.4016 27.7116 77.5189 27.7997 77.6242 27.8694C77.9836 28.0995 78.3516 28.2036 78.7282 28.1817C79.1048 28.1598 79.4772 28.0412 79.8452 27.8259C80.2132 27.6105 80.5591 27.3305 80.8827 26.9857C81.2137 26.6332 81.4738 26.2653 81.663 25.8821C81.8548 25.5012 81.9485 25.1235 81.9443 24.7488C81.94 24.3742 81.8118 24.0173 81.5597 23.6781C81.486 23.5747 81.3894 23.4621 81.2698 23.3401C81.1503 23.2181 81.0438 23.1132 80.9505 23.0256L79.9357 22.0728L75.92 26.3496Z" fill="white"/>
<path d="M22.0266 76.1221L26.658 70.213L28.9929 72.0431C29.0503 72.0881 29.1166 72.1445 29.1916 72.2121C29.2688 72.277 29.339 72.3453 29.4021 72.4168C29.6836 72.717 29.8659 73.0365 29.9491 73.3755C30.035 73.7167 30.0308 74.0601 29.9366 74.4057C29.8444 74.7486 29.6751 75.0774 29.4285 75.392C29.1841 75.7039 28.9039 75.9458 28.5881 76.1178C28.2771 76.2891 27.9446 76.3752 27.5907 76.3761C27.2416 76.3763 26.8891 76.2766 26.5332 76.0772C26.4508 76.0302 26.3677 75.9784 26.2841 75.9217C26.2005 75.865 26.13 75.8141 26.0725 75.7691L24.468 74.5115L22.757 76.6946L22.0266 76.1221ZM25.0116 73.818L26.5914 75.0563C26.6434 75.097 26.7044 75.1404 26.7743 75.1864C26.847 75.2345 26.9188 75.2753 26.9897 75.3088C27.2128 75.413 27.4281 75.4537 27.6358 75.431C27.8484 75.4077 28.0431 75.3396 28.2201 75.2265C28.3992 75.1107 28.553 74.9708 28.6817 74.8066C28.8103 74.6425 28.9084 74.461 28.9759 74.2622C29.0455 74.0606 29.0663 73.8539 29.0381 73.6419C29.0127 73.4321 28.9217 73.2327 28.7651 73.0437C28.7177 72.9801 28.661 72.9201 28.5947 72.8638C28.5333 72.8069 28.4767 72.758 28.4247 72.7173L26.8448 71.479L25.0116 73.818Z" fill="white"/>
<path d="M28.2156 80.501L31.7399 73.8719L34.3594 75.2645C34.4238 75.2987 34.4989 75.3426 34.5846 75.396C34.672 75.4464 34.7531 75.5013 34.8278 75.5607C35.1575 75.8069 35.393 76.0895 35.5343 76.4087C35.6786 76.7295 35.7347 77.0683 35.7024 77.4252C35.6718 77.7789 35.5627 78.1323 35.3751 78.4852C35.1026 78.9977 34.7325 79.3718 34.2648 79.6073C33.7987 79.8398 33.2826 79.8665 32.7164 79.6876L32.3765 79.5718L30.3371 78.4876L29.035 80.9367L28.2156 80.501ZM32.1609 82.5985L32.2877 79.2057L33.23 79.3879L33.1 83.0978L32.1609 82.5985ZM30.7507 77.7096L32.5231 78.6518C32.5814 78.6828 32.649 78.7148 32.7259 78.7479C32.8059 78.7825 32.8837 78.8101 32.9594 78.8307C33.1973 78.8941 33.4165 78.8965 33.617 78.8378C33.8222 78.7776 34.002 78.6764 34.1564 78.534C34.3124 78.3887 34.4393 78.2239 34.5372 78.0398C34.6351 77.8556 34.6999 77.6598 34.7315 77.4522C34.7648 77.2416 34.7489 77.0344 34.6841 76.8306C34.6223 76.6285 34.4977 76.4481 34.3104 76.2895C34.2527 76.2352 34.1863 76.1861 34.1112 76.1422C34.0408 76.0969 33.9764 76.0588 33.9181 76.0278L32.1457 75.0855L30.7507 77.7096Z" fill="white"/>
<path d="M38.4355 85.0042C37.7218 84.7826 37.165 84.4367 36.765 83.9668C36.3651 83.4968 36.1211 82.9406 36.0331 82.2981C35.9484 81.6567 36.0205 80.9676 36.2494 80.2307C36.4782 79.4938 36.8092 78.885 37.2424 78.4045C37.6788 77.9249 38.195 77.6048 38.7909 77.4441C39.3867 77.2834 40.0415 77.3139 40.7551 77.5355C41.4721 77.7582 42.0306 78.1046 42.4306 78.5746C42.8306 79.0445 43.0729 79.6002 43.1576 80.2416C43.2423 80.883 43.1702 81.5722 42.9413 82.3091C42.7124 83.046 42.3814 83.6547 41.9483 84.1353C41.5151 84.6159 41.0006 84.9365 40.4048 85.0972C39.8089 85.2579 39.1525 85.2269 38.4355 85.0042ZM38.6984 84.1578C39.2318 84.3271 39.7137 84.3457 40.1441 84.2137C40.5789 84.0794 40.9518 83.8222 41.2628 83.442C41.5771 83.0628 41.8229 82.5877 42.0002 82.0168C42.1786 81.4425 42.2452 80.9118 42.1999 80.4246C42.158 79.9385 41.9955 79.5186 41.7122 79.1649C41.4323 78.8123 41.0256 78.5513 40.4923 78.382C39.9589 78.2127 39.4769 78.194 39.0465 78.3261C38.6194 78.4591 38.2487 78.7152 37.9344 79.0944C37.6201 79.4735 37.3721 79.9497 37.1904 80.523C37.0098 81.0929 36.9421 81.6214 36.9873 82.1086C37.0325 82.5958 37.1946 83.0174 37.4735 83.3733C37.7567 83.727 38.165 83.9885 38.6984 84.1578Z" fill="white"/>
<path d="M46.8394 86.5437C46.328 86.4883 45.8712 86.3479 45.4691 86.1225C45.067 85.8972 44.7321 85.6004 44.4643 85.2323C44.1969 84.8606 44.0061 84.4274 43.8919 83.9326C43.7816 83.4346 43.759 82.885 43.8241 82.2838C43.9103 81.489 44.1265 80.8167 44.4728 80.2669C44.819 79.717 45.2667 79.3128 45.8156 79.0541C46.365 78.792 46.9869 78.6986 47.6815 78.7739C48.5177 78.8645 49.1704 79.1328 49.6395 79.5787C50.109 80.0211 50.404 80.5897 50.5245 81.2846L49.5707 81.3752C49.4642 80.9057 49.2477 80.5169 48.9209 80.2088C48.5942 79.9007 48.1648 79.7178 47.6326 79.6601C47.0767 79.5963 46.6001 79.6706 46.203 79.8827C45.8098 80.0919 45.4953 80.4126 45.2597 80.8451C45.024 81.2776 44.872 81.7925 44.8038 82.3899C44.7359 82.9839 44.771 83.5157 44.9089 83.9851C45.0468 84.4545 45.2868 84.8372 45.6288 85.1329C45.9747 85.4257 46.4256 85.6039 46.9816 85.6676C47.4615 85.7231 47.8757 85.6754 48.2242 85.5244C48.5727 85.3733 48.8559 85.1313 49.0738 84.7983C49.2917 84.4653 49.4464 84.0538 49.538 83.5638L47.9519 83.3919L48.0345 82.6299L50.5951 82.9074C50.5979 82.9777 50.5941 83.0612 50.5837 83.1579C50.577 83.2516 50.5718 83.3157 50.5681 83.3503C50.4943 84.031 50.3003 84.6271 49.9862 85.1384C49.6759 85.6467 49.2553 86.0277 48.7243 86.2813C48.1968 86.5353 47.5685 86.6228 46.8394 86.5437Z" fill="white"/>
<path d="M52.3641 86.5399L51.7675 79.0559L54.7247 78.8201C54.7975 78.8143 54.8844 78.8109 54.9854 78.8098C55.0862 78.8053 55.184 78.8079 55.279 78.8178C55.6893 78.8478 56.0399 78.9594 56.3308 79.1524C56.6251 79.3451 56.8546 79.6005 57.0195 79.9186C57.184 80.2333 57.2822 80.5898 57.3139 80.9883C57.3601 81.5669 57.2494 82.0813 56.9819 82.5315C56.7142 82.9783 56.2936 83.2785 55.72 83.4323L55.3712 83.5177L53.0688 83.7012L53.2892 86.4661L52.3641 86.5399ZM56.8181 86.1848L55.0993 83.2569L55.9917 82.9034L57.8784 86.1003L56.8181 86.1848ZM52.9988 82.8229L54.9997 82.6634C55.0655 82.6581 55.1398 82.6487 55.2224 82.6352C55.3084 82.6213 55.3889 82.6027 55.4637 82.5793C55.6984 82.5048 55.8844 82.3889 56.0218 82.2315C56.1624 82.0703 56.2594 81.8883 56.313 81.6852C56.3663 81.4788 56.3846 81.2716 56.3681 81.0637C56.3515 80.8558 56.3007 80.6559 56.2156 80.4639C56.1303 80.2684 56.0055 80.1023 55.8412 79.9655C55.6803 79.8284 55.4783 79.7434 55.235 79.7104C55.1572 79.6957 55.0748 79.6901 54.9879 79.6935C54.9042 79.6932 54.8294 79.6957 54.7636 79.7009L52.7626 79.8604L52.9988 82.8229Z" fill="white"/>
<path d="M59.855 85.6299L60.3427 77.7278L61.5918 77.3937L65.9594 83.9971L65.0277 84.2463L60.9562 78.1249L61.2383 78.0495L60.7868 85.3807L59.855 85.6299ZM60.5695 83.62L60.3445 82.7789L64.1119 81.7712L64.3369 82.6123L60.5695 83.62Z" fill="white"/>
<path d="M68.1086 83.0256L64.774 76.299L65.5307 75.9239L70.728 80.0221L70.599 73.4113L71.3651 73.0316L74.6974 79.7535L73.908 80.1449L71.4811 75.2494L71.626 81.2819L71.1823 81.5019L66.4689 77.7341L68.898 82.6343L68.1086 83.0256Z" fill="white"/>
<path d="M78.5826 76.8373C78.1622 77.163 77.7276 77.3853 77.279 77.5042C76.8331 77.621 76.398 77.6327 75.9738 77.5392C75.5503 77.4408 75.1651 77.2358 74.8181 76.9242L75.4839 76.2171C75.8696 76.5164 76.2955 76.6547 76.7617 76.6321C77.2285 76.6047 77.6679 76.4313 78.0801 76.112C78.3466 75.9055 78.5551 75.6781 78.7056 75.4296C78.8567 75.1763 78.9348 74.9223 78.9399 74.6678C78.9449 74.4132 78.8644 74.1788 78.6984 73.9645C78.5962 73.8326 78.4856 73.738 78.3665 73.6808C78.2481 73.6187 78.1234 73.5855 77.9927 73.5813C77.8625 73.5722 77.7299 73.5826 77.5948 73.6125C77.4597 73.6424 77.3268 73.6838 77.1963 73.7366L75.3356 74.4591C75.1324 74.5373 74.9251 74.599 74.7138 74.644C74.5003 74.6863 74.2895 74.6979 74.0813 74.6789C73.871 74.6571 73.6684 74.5942 73.4735 74.4902C73.2764 74.3834 73.0928 74.2201 72.9225 74.0003C72.65 73.6486 72.5087 73.2788 72.4985 72.891C72.4889 72.4984 72.5896 72.1148 72.8007 71.7402C73.0118 71.3657 73.3149 71.0276 73.7099 70.7259C74.1105 70.42 74.5217 70.2158 74.9435 70.1133C75.3659 70.0059 75.7802 70.0015 76.1864 70.1002C76.5953 70.1967 76.9749 70.3973 77.3252 70.7019L76.6515 71.4414C76.423 71.2315 76.1703 71.0953 75.8933 71.0329C75.6169 70.9656 75.3367 70.9672 75.0528 71.0377C74.7667 71.1054 74.4962 71.2358 74.2413 71.4289C73.9973 71.6134 73.8087 71.8211 73.6753 72.052C73.542 72.2828 73.4729 72.5143 73.4682 72.7466C73.4613 72.9761 73.5292 73.183 73.6718 73.3671C73.8123 73.5484 73.9784 73.655 74.1701 73.6868C74.3597 73.7158 74.5556 73.7047 74.7578 73.6536C74.9606 73.5976 75.1508 73.5338 75.3284 73.4622L76.7099 72.913C76.8668 72.8487 77.0535 72.7832 77.27 72.7165C77.4894 72.6478 77.7234 72.6094 77.9722 72.6013C78.2188 72.5905 78.4678 72.6395 78.7191 72.7482C78.9682 72.8541 79.2035 73.05 79.4249 73.3358C79.6463 73.6215 79.7854 73.9204 79.8425 74.2324C79.9022 74.5422 79.889 74.8515 79.8027 75.1601C79.7143 75.466 79.5653 75.7617 79.3556 76.0473C79.148 76.3356 78.8904 76.5989 78.5826 76.8373Z" fill="white"/>
<path d="M33.5101 55V44.407L31.0801 45.892V43.498L33.5101 42.04H35.7241V55H33.5101ZM43.8146 55.27C42.8966 55.27 42.0866 55.075 41.3846 54.685C40.6826 54.289 40.1336 53.74 39.7376 53.038C39.3476 52.336 39.1526 51.526 39.1526 50.608V46.432C39.1526 45.514 39.3476 44.704 39.7376 44.002C40.1336 43.3 40.6826 42.754 41.3846 42.364C42.0866 41.968 42.8966 41.77 43.8146 41.77C44.7326 41.77 45.5396 41.968 46.2356 42.364C46.9376 42.754 47.4866 43.3 47.8826 44.002C48.2786 44.704 48.4766 45.514 48.4766 46.432V50.608C48.4766 51.526 48.2786 52.336 47.8826 53.038C47.4866 53.74 46.9376 54.289 46.2356 54.685C45.5396 55.075 44.7326 55.27 43.8146 55.27ZM43.8146 53.209C44.2706 53.209 44.6846 53.101 45.0566 52.885C45.4286 52.663 45.7226 52.369 45.9386 52.003C46.1546 51.631 46.2626 51.217 46.2626 50.761V46.27C46.2626 45.808 46.1546 45.394 45.9386 45.028C45.7226 44.656 45.4286 44.362 45.0566 44.146C44.6846 43.924 44.2706 43.813 43.8146 43.813C43.3586 43.813 42.9446 43.924 42.5726 44.146C42.2006 44.362 41.9066 44.656 41.6906 45.028C41.4746 45.394 41.3666 45.808 41.3666 46.27V50.761C41.3666 51.217 41.4746 51.631 41.6906 52.003C41.9066 52.369 42.2006 52.663 42.5726 52.885C42.9446 53.101 43.3586 53.209 43.8146 53.209ZM55.6623 55.27C54.7443 55.27 53.9343 55.075 53.2323 54.685C52.5303 54.289 51.9813 53.74 51.5853 53.038C51.1953 52.336 51.0003 51.526 51.0003 50.608V46.432C51.0003 45.514 51.1953 44.704 51.5853 44.002C51.9813 43.3 52.5303 42.754 53.2323 42.364C53.9343 41.968 54.7443 41.77 55.6623 41.77C56.5803 41.77 57.3873 41.968 58.0833 42.364C58.7853 42.754 59.3343 43.3 59.7303 44.002C60.1263 44.704 60.3243 45.514 60.3243 46.432V50.608C60.3243 51.526 60.1263 52.336 59.7303 53.038C59.3343 53.74 58.7853 54.289 58.0833 54.685C57.3873 55.075 56.5803 55.27 55.6623 55.27ZM55.6623 53.209C56.1183 53.209 56.5323 53.101 56.9043 52.885C57.2763 52.663 57.5703 52.369 57.7863 52.003C58.0023 51.631 58.1103 51.217 58.1103 50.761V46.27C58.1103 45.808 58.0023 45.394 57.7863 45.028C57.5703 44.656 57.2763 44.362 56.9043 44.146C56.5323 43.924 56.1183 43.813 55.6623 43.813C55.2063 43.813 54.7923 43.924 54.4203 44.146C54.0483 44.362 53.7543 44.656 53.5383 45.028C53.3223 45.394 53.2143 45.808 53.2143 46.27V50.761C53.2143 51.217 53.3223 51.631 53.5383 52.003C53.7543 52.369 54.0483 52.663 54.4203 52.885C54.7923 53.101 55.2063 53.209 55.6623 53.209ZM64.648 55L63.208 53.56L74.737 42.04L76.177 43.489L64.648 55ZM73.477 55.27C72.883 55.27 72.34 55.126 71.848 54.838C71.362 54.544 70.972 54.154 70.678 53.668C70.384 53.176 70.237 52.63 70.237 52.03C70.237 51.442 70.387 50.902 70.687 50.41C70.987 49.918 71.383 49.525 71.875 49.231C72.367 48.937 72.901 48.79 73.477 48.79C74.071 48.79 74.614 48.937 75.106 49.231C75.598 49.519 75.988 49.909 76.276 50.401C76.57 50.887 76.717 51.43 76.717 52.03C76.717 52.63 76.57 53.176 76.276 53.668C75.988 54.154 75.598 54.544 75.106 54.838C74.614 55.126 74.071 55.27 73.477 55.27ZM73.477 53.416C73.723 53.416 73.951 53.353 74.161 53.227C74.377 53.101 74.548 52.933 74.674 52.723C74.8 52.513 74.863 52.282 74.863 52.03C74.863 51.778 74.8 51.547 74.674 51.337C74.548 51.127 74.377 50.959 74.161 50.833C73.951 50.707 73.723 50.644 73.477 50.644C73.225 50.644 72.994 50.707 72.784 50.833C72.574 50.959 72.403 51.127 72.271 51.337C72.145 51.547 72.082 51.778 72.082 52.03C72.082 52.282 72.145 52.513 72.271 52.723C72.403 52.933 72.574 53.101 72.784 53.227C72.994 53.353 73.225 53.416 73.477 53.416ZM65.908 48.25C65.314 48.25 64.771 48.106 64.279 47.818C63.787 47.524 63.394 47.134 63.1 46.648C62.812 46.156 62.668 45.61 62.668 45.01C62.668 44.422 62.818 43.882 63.118 43.39C63.418 42.898 63.814 42.505 64.306 42.211C64.798 41.917 65.332 41.77 65.908 41.77C66.502 41.77 67.042 41.917 67.528 42.211C68.02 42.499 68.413 42.889 68.707 43.381C69.001 43.867 69.148 44.41 69.148 45.01C69.148 45.61 69.001 46.156 68.707 46.648C68.413 47.134 68.02 47.524 67.528 47.818C67.042 48.106 66.502 48.25 65.908 48.25ZM65.908 46.396C66.16 46.396 66.391 46.333 66.601 46.207C66.811 46.081 66.979 45.913 67.105 45.703C67.231 45.493 67.294 45.262 67.294 45.01C67.294 44.758 67.231 44.527 67.105 44.317C66.979 44.107 66.811 43.939 66.601 43.813C66.391 43.687 66.16 43.624 65.908 43.624C65.656 43.624 65.425 43.687 65.215 43.813C65.005 43.939 64.837 44.107 64.711 44.317C64.585 44.527 64.522 44.758 64.522 45.01C64.522 45.262 64.585 45.493 64.711 45.703C64.837 45.913 65.005 46.081 65.215 46.207C65.425 46.333 65.656 46.396 65.908 46.396Z" fill="white"/>
</svg>
