<svg width="137" height="145" viewBox="0 0 137 145" fill="none" xmlns="http://www.w3.org/2000/svg">
<path d="M135.475 55.8395C135.475 55.8395 128.785 56.4962 128.126 54.511C127.468 52.5258 125.286 51.7984 120.878 52.5157C116.47 53.233 118.199 51.4499 116.676 50.8285C115.66 50.4523 114.566 50.3394 113.495 50.5002C113.495 50.5002 118.018 42.4989 102.437 45.7974C102.437 45.7974 96.2597 43.8223 94.219 47.722C92.1784 51.6216 93.0479 52.152 87.3029 53.7533C81.5579 55.3546 85.9056 58.8299 85.9056 58.8299C85.9056 58.8299 87.7502 60.0422 85.5437 61.3555C83.3372 62.6689 82.3922 66.4473 83.4075 68.7558C84.4228 71.0642 87.4537 76.2368 89.5999 77.2269C91.7461 78.2169 97.9636 78.9746 99.2654 77.4037C100.567 75.8327 101.678 75.5902 103.332 77.1814C104.985 78.7726 110.509 77.8128 109.866 79.3434C109.222 80.874 106.347 84.2432 108.579 88.355C110.811 92.4668 112.379 95.6643 109.775 97.8616C107.172 100.059 107.302 102.913 109.64 105.413C109.64 105.413 107.805 110.697 109.499 112.99C111.193 115.284 110.891 118.33 110.268 119.865C109.645 121.401 110.303 120.547 110.303 120.547C110.303 120.547 109.831 122.911 111.097 121.608C112.364 120.305 140.129 95.735 135.475 55.8395Z" fill="#B6D2FF"/>
<path d="M103.56 44.6667C107.192 43.8321 109.028 39.4656 109.028 39.4656C109.028 39.4656 112.676 41.3588 114.098 38.9567C114.098 38.9567 115.612 43.4046 117.837 44C117.837 44 115.758 44.3766 116.131 46.4733C116.505 48.57 122.599 47.5471 121.277 43.542C119.955 39.5369 113.796 40.1425 117.483 37.944C121.171 35.7455 122.851 42.0153 122.886 43.6336C122.922 45.2519 121.56 49.1654 124.738 47.7048C127.916 46.2443 127.235 41.5267 128.239 43.9847C129.243 46.4427 127.361 49.1756 130.292 49.4606C131.541 49.5379 132.781 49.7183 134 50C134 50 128.955 30.3308 118.159 18C118.159 18 118.084 19.486 115.36 19.6336C112.635 19.7812 110.95 23.084 112.837 25.1247C114.724 27.1654 117.564 26.0865 117.488 27.5725C117.413 29.0585 116.898 29.8015 114.744 28.8092C112.59 27.8168 111.213 28.0254 110.658 29.9898C110.103 31.9542 109.22 33.4606 107.707 32.6972C106.193 31.9338 102.662 33.2061 104.337 36.4326C104.337 36.4326 105.149 39.2723 103.222 38.5852C101.295 37.8982 96.2851 36.0814 96.0127 40.8092C95.7403 45.5369 99.9275 45.5064 103.56 44.6667Z" fill="#B6D2FF"/>
<path d="M72.9097 10.7749C72.7478 9.87182 72.3919 9.01438 71.8664 8.26146C71.3409 7.50854 70.6582 6.87799 69.8653 6.41314C67.0905 4.70656 60.0603 3.30805 59.4083 7.0097C58.7562 10.7114 55.9324 8.34465 55.9324 8.34465C56.4631 8.05351 56.919 7.64371 57.2643 7.14741C57.6096 6.65111 57.835 6.08179 57.9228 5.48406C58.217 3.43519 52.7066 2.511 52.5742 4.32515C52.4418 6.13931 53.7655 6.98525 52.2801 7.29331C50.7946 7.60138 49.4121 8.06104 47.5541 8.18817C45.696 8.31531 45.4999 6.06106 45.4999 6.06106C46.652 6.16414 47.8132 6.06652 48.9317 5.77256C50.976 5.28357 52.1722 3.35205 49.9122 2.63813C47.6521 1.9242 50.0543 4.35938 45.0391 3.61611C45.0391 3.61611 44.4165 3.39606 43.8674 1.74816C43.3183 0.100264 38.7051 -0.696791 37.0481 0.770181C35.391 2.23715 36.2735 3.41074 37.6511 3.8655C39.0287 4.32026 37.0628 5.22489 39.2297 5.66498C41.3966 6.10507 42.2839 6.36424 41.6809 6.93146C41.0779 7.49869 30.2336 4.37404 30.4542 1.91931C30.4542 1.91931 8.69215 11.7627 6.10352e-05 31.9873C0.0955758 32.3707 0.298381 32.719 0.584826 32.9917C0.871271 33.2644 1.22955 33.4503 1.61788 33.5277C3.01509 33.8602 3.91224 33.9873 3.39748 36.667C2.88272 39.3466 2.06891 44.9798 5.64772 45.6302C9.22652 46.2805 7.43222 43.2684 6.58899 41.8356C5.74576 40.4029 5.19668 36.0068 7.27533 37.0875C9.35398 38.1682 6.29484 38.3882 9.39811 44.2023C12.5014 50.0164 7.70676 49.5812 11.4326 53.7914C15.1585 58.0016 17.2372 53.5763 18.4677 55.0628C19.6982 56.5493 18.5216 57.4246 20.963 57.7767C23.4045 58.1288 22.3799 57.0628 23.4829 59.4442C24.586 61.8255 25.3508 66.5199 32.5525 64.8231C32.5525 64.8231 33.7438 67.4832 32.5525 69.2778C31.3612 71.0723 27.8461 70.9599 27.4392 74.7007C27.0323 78.4414 27.8755 79.8693 29.5816 82.5979C31.2877 85.3264 30.0032 86.9988 31.9152 88.3044C33.8272 89.61 38.2884 90.3973 37.4207 93.8055C36.5529 97.2138 34.9694 103.536 35.793 105.096C36.6167 106.656 35.5724 106.632 35.3028 108.558C35.0332 110.485 37.754 112.446 37.5432 114.915C37.3324 117.385 34.8714 119.771 36.4696 122.358C38.0678 124.944 38.4698 123.952 39.1856 126.27C39.9013 128.587 40.4161 129.59 41.6809 129.903C42.9457 130.216 45.0048 130.509 45.7598 131.663C46.5148 132.817 48.3875 130.734 47.1227 129.502C45.8578 128.27 44.2204 128.695 44.6714 126.274C45.1225 123.854 46.5687 123.145 44.642 121.952C42.7153 120.759 43.0438 119.365 43.8331 119.346C44.6224 119.326 46.4461 118.544 44.9215 117.277C43.3968 116.011 42.9163 115.678 44.0929 115.717C45.2695 115.756 48.9072 116.93 52.1085 113.854C54.2679 111.735 56.301 109.492 58.1974 107.135C58.7669 105.801 58.9765 104.341 58.8053 102.901C58.4572 100.754 60.1142 100.206 62.9626 100.485C65.8109 100.764 65.4775 99.4045 65.4775 99.4045C65.4775 99.4045 67.9925 101.991 68.8504 91.5073C68.8504 91.5073 68.7034 89.786 71.939 88.2848C75.1746 86.7836 72.4293 82.9891 70.6006 82.9891C70.6006 82.9891 69.8849 80.6615 68.3602 80.3094C66.8355 79.9573 63.3646 80.3778 61.9478 79.2581C60.8902 78.4674 59.7591 77.7797 58.5699 77.2043C58.5699 77.2043 60.3054 69.7276 52.9517 69.7227C52.9517 69.7227 51.8928 64.3438 48.1963 64.4563C44.4998 64.5688 44.0635 64.9111 43.534 64.0504C43.0046 63.1898 42.3035 59.8158 39.715 60.4906C37.1265 61.1654 36.5137 64.4856 33.9938 63.7326C31.474 62.9796 28.2972 63.1752 29.057 60.6666C29.8169 58.1581 30.2581 55.2193 26.3362 55.1655C26.3362 55.1655 25.3557 54.7596 26.9833 53.4247C28.6109 52.0897 27.8657 50.0017 26.9294 50.1436C25.993 50.2854 23.2182 52.2315 21.8945 52.3C20.5709 52.3685 16.3449 51.6399 18.6638 46.4712C20.9827 41.3026 32.0819 40.7989 32.881 43.4053C33.6801 46.0116 32.7486 47.0531 35.3322 47.3172C37.9158 47.5812 37.1363 42.9896 37.1363 42.9896L44.1959 38.6376C44.688 38.2463 45.1106 37.7751 45.446 37.244C45.9657 36.4029 54.5646 32.2661 56.4227 29.3908C58.2807 26.5155 58.9082 24.9019 61.3497 26.1684C63.7911 27.4348 64.8059 27.7087 65.4334 26.0999C66.0609 24.4911 69.272 28.6133 70.5761 26.8383C71.8802 25.0632 71.2772 22.8774 68.5759 22.4911C65.8746 22.1048 69.4044 19.4692 68.321 18.7895C67.2375 18.1098 65.1981 20.4374 64.149 19.4985C63.0998 18.5597 65.3109 15.0976 61.786 14.9705C58.2611 14.8433 57.815 15.1856 56.7266 19.0878C55.6383 22.9899 54.0989 19.0878 51.3339 21.9826C48.5689 24.8774 49.2013 23.1171 48.9268 21.3762C48.6522 19.6354 46.7403 18.3103 44.794 18.1636C42.8477 18.0169 43.6223 14.4619 46.4902 13.6942C49.3582 12.9265 52.8292 11.5915 52.8292 11.5915C52.8292 11.5915 53.138 13.9925 55.197 13.3715C57.2561 12.7505 57.9571 10.6233 57.9571 10.6233L60.0162 10.9167C60.0162 10.9167 61.4134 9.41553 61.8154 9.34218C62.2174 9.26884 66.4482 10.0072 66.4482 10.0072C66.4482 10.0072 68.8357 9.82629 66.5757 10.9412C64.3156 12.0561 62.9381 10.682 63.4332 12.7162C63.9284 14.7504 64.0901 13.5964 65.6001 14.99C67.1101 16.3837 69.5221 16.0756 70.0466 14.1881C70.0466 14.1881 73.1499 15.4203 73.8314 13.4204C74.5128 11.4204 72.9097 10.7749 72.9097 10.7749Z" fill="#B6D2FF"/>
<path fill-rule="evenodd" clip-rule="evenodd" d="M118.293 79C118.433 78.6882 118.499 78.3483 118.485 78.007H118.6C118.108 66.266 108.414 57 96.6218 57C84.83 57 75.1356 66.266 74.6435 78.007C74.5855 78.3355 74.5855 78.6715 74.6435 79H74.2996C68.661 79 62.6335 82.7223 60.8836 92.7283L57.4616 119.985C54.6618 139.997 64.9667 145 78.4216 145H114.897C128.313 145 138.307 137.756 135.818 119.985L132.435 92.7283C130.374 83.0024 124.541 79 118.98 79H118.293ZM111.97 79C111.848 78.683 111.783 78.3467 111.779 78.007C111.779 69.57 104.915 62.7305 96.4493 62.7305C87.9832 62.7305 81.1201 69.57 81.1201 78.007C81.1781 78.3355 81.1781 78.6715 81.1201 79H111.97ZM83.827 101.654C81.6794 101.654 79.9384 99.862 79.9384 97.6515C79.9384 95.441 81.6794 93.649 83.827 93.649C85.9747 93.649 87.7157 95.441 87.7157 97.6515C87.7157 99.862 85.9747 101.654 83.827 101.654ZM105.409 97.6515C105.409 99.862 107.15 101.654 109.298 101.654C111.446 101.654 113.187 99.862 113.187 97.6515C113.187 95.441 111.446 93.649 109.298 93.649C107.15 93.649 105.409 95.441 105.409 97.6515Z" fill="#005DF2"/>
</svg>
