<svg width="173" height="61" viewBox="0 0 173 61" fill="none" xmlns="http://www.w3.org/2000/svg">
<path d="M93.9494 48.0082C93.4873 48.0082 93.0705 47.9297 92.699 47.7726C92.3305 47.6156 92.0254 47.3921 91.7838 47.1021C91.5452 46.8091 91.3896 46.4633 91.3171 46.0646L92.1508 45.9332C92.2565 46.344 92.4755 46.6657 92.8077 46.8982C93.143 47.1278 93.5371 47.2426 93.9902 47.2426C94.2832 47.2426 94.5475 47.1973 94.7831 47.1066C95.0217 47.013 95.2104 46.8801 95.3494 46.7079C95.4883 46.5358 95.5578 46.3319 95.5578 46.0963C95.5578 45.9513 95.5321 45.8275 95.4808 45.7248C95.4324 45.6191 95.3645 45.53 95.2769 45.4575C95.1923 45.382 95.0957 45.3186 94.9869 45.2672C94.8782 45.2159 94.7649 45.1736 94.6471 45.1404L92.9844 44.6465C92.8032 44.5922 92.628 44.5242 92.4589 44.4426C92.2897 44.3581 92.1387 44.2539 92.0058 44.13C91.8729 44.0032 91.7672 43.8522 91.6887 43.677C91.6101 43.4988 91.5709 43.2888 91.5709 43.0472C91.5709 42.6606 91.6705 42.3314 91.8699 42.0595C92.0722 41.7847 92.3456 41.5748 92.6899 41.4298C93.0342 41.2848 93.4224 41.2138 93.8543 41.2168C94.2922 41.2199 94.6834 41.2984 95.0277 41.4524C95.3751 41.6035 95.662 41.8209 95.8885 42.1048C96.1181 42.3888 96.2721 42.7286 96.3507 43.1242L95.4944 43.2737C95.4491 43.0079 95.3479 42.7799 95.1908 42.5896C95.0368 42.3963 94.8435 42.2483 94.6109 42.1456C94.3783 42.0399 94.1231 41.9855 93.8452 41.9825C93.5794 41.9795 93.3393 42.0218 93.1249 42.1094C92.9104 42.197 92.7398 42.3193 92.6129 42.4764C92.486 42.6304 92.4226 42.8086 92.4226 43.011C92.4226 43.2103 92.48 43.3719 92.5948 43.4957C92.7096 43.6166 92.85 43.7132 93.0161 43.7857C93.1853 43.8552 93.3499 43.9126 93.51 43.9579L94.7513 44.3158C94.8933 44.355 95.0564 44.4094 95.2407 44.4789C95.4279 44.5484 95.6091 44.6465 95.7843 44.7734C95.9595 44.8972 96.1045 45.0633 96.2193 45.2717C96.334 45.4771 96.3914 45.7369 96.3914 46.051C96.3914 46.3651 96.328 46.6445 96.2011 46.8892C96.0773 47.1338 95.9036 47.3392 95.6801 47.5053C95.4566 47.6684 95.1969 47.7923 94.9009 47.8768C94.6049 47.9644 94.2877 48.0082 93.9494 48.0082ZM99.1993 47.9992C98.8852 47.9992 98.6149 47.9493 98.3884 47.8497C98.1649 47.75 97.9791 47.6171 97.8311 47.451C97.6831 47.2848 97.5668 47.1006 97.4822 46.8982C97.3977 46.6959 97.3373 46.489 97.301 46.2775C97.2678 46.0661 97.2512 45.8683 97.2512 45.684V42.9793H98.0667V45.4303C98.0667 45.6599 98.0878 45.8819 98.1301 46.0963C98.1724 46.3108 98.2434 46.5041 98.3431 46.6762C98.4458 46.8484 98.5817 46.9843 98.7508 47.084C98.923 47.1837 99.1374 47.2335 99.3942 47.2335C99.5965 47.2335 99.7808 47.1988 99.9469 47.1293C100.113 47.0598 100.255 46.9571 100.373 46.8212C100.491 46.6823 100.581 46.5071 100.645 46.2957C100.708 46.0842 100.74 45.8381 100.74 45.5572L101.27 45.7203C101.27 46.1915 101.184 46.5977 101.012 46.939C100.842 47.2803 100.602 47.5431 100.291 47.7273C99.9831 47.9086 99.6192 47.9992 99.1993 47.9992ZM100.83 47.8723V46.563H100.74V42.9793H101.551V47.8723H100.83ZM104.881 48.0082C104.385 48.0082 103.964 47.898 103.617 47.6775C103.272 47.454 103.01 47.1474 102.828 46.7578C102.647 46.3682 102.553 45.9242 102.547 45.4258C102.553 44.9153 102.649 44.4668 102.833 44.0802C103.02 43.6906 103.287 43.387 103.635 43.1695C103.982 42.9521 104.4 42.8433 104.89 42.8433C105.406 42.8433 105.85 42.9702 106.222 43.2239C106.596 43.4776 106.847 43.825 106.974 44.2659L106.176 44.5061C106.074 44.2222 105.906 44.0017 105.674 43.8446C105.444 43.6875 105.18 43.609 104.881 43.609C104.545 43.609 104.269 43.6875 104.052 43.8446C103.834 43.9986 103.672 44.2131 103.567 44.4879C103.461 44.7598 103.407 45.0724 103.404 45.4258C103.41 45.9695 103.535 46.4089 103.78 46.7442C104.027 47.0764 104.394 47.2426 104.881 47.2426C105.201 47.2426 105.467 47.1701 105.678 47.0251C105.889 46.8771 106.05 46.6642 106.158 46.3863L106.974 46.5992C106.805 47.0553 106.54 47.4042 106.181 47.6458C105.822 47.8874 105.388 48.0082 104.881 48.0082ZM109.827 48.0082C109.332 48.0082 108.91 47.898 108.563 47.6775C108.219 47.454 107.956 47.1474 107.775 46.7578C107.594 46.3682 107.5 45.9242 107.494 45.4258C107.5 44.9153 107.595 44.4668 107.779 44.0802C107.967 43.6906 108.234 43.387 108.581 43.1695C108.929 42.9521 109.347 42.8433 109.836 42.8433C110.353 42.8433 110.797 42.9702 111.168 43.2239C111.543 43.4776 111.793 43.825 111.92 44.2659L111.123 44.5061C111.02 44.2222 110.853 44.0017 110.62 43.8446C110.39 43.6875 110.126 43.609 109.827 43.609C109.492 43.609 109.216 43.6875 108.998 43.8446C108.781 43.9986 108.619 44.2131 108.513 44.4879C108.408 44.7598 108.353 45.0724 108.35 45.4258C108.356 45.9695 108.482 46.4089 108.726 46.7442C108.974 47.0764 109.341 47.2426 109.827 47.2426C110.147 47.2426 110.413 47.1701 110.625 47.0251C110.836 46.8771 110.996 46.6642 111.105 46.3863L111.92 46.5992C111.751 47.0553 111.487 47.4042 111.127 47.6458C110.768 47.8874 110.335 48.0082 109.827 48.0082ZM114.833 48.0082C114.352 48.0082 113.932 47.9025 113.573 47.6911C113.217 47.4766 112.939 47.1791 112.739 46.7986C112.54 46.415 112.44 45.9679 112.44 45.4575C112.44 44.9229 112.539 44.4608 112.735 44.0711C112.931 43.6785 113.205 43.3764 113.555 43.165C113.908 42.9506 114.322 42.8433 114.796 42.8433C115.289 42.8433 115.707 42.9566 116.051 43.1831C116.399 43.4097 116.658 43.7328 116.831 44.1527C117.006 44.5725 117.081 45.0724 117.057 45.6523H116.242V45.3624C116.233 44.7613 116.11 44.3128 115.875 44.0168C115.639 43.7177 115.289 43.5682 114.824 43.5682C114.325 43.5682 113.946 43.7283 113.686 44.0485C113.427 44.3686 113.297 44.8277 113.297 45.4258C113.297 46.0027 113.427 46.4497 113.686 46.7668C113.946 47.084 114.316 47.2426 114.796 47.2426C115.12 47.2426 115.4 47.1686 115.639 47.0206C115.878 46.8726 116.065 46.6596 116.201 46.3817L116.976 46.649C116.785 47.081 116.498 47.4162 116.115 47.6548C115.734 47.8904 115.307 48.0082 114.833 48.0082ZM113.025 45.6523V45.0044H116.64V45.6523H113.025ZM119.914 48.0037C119.331 48.0037 118.853 47.8768 118.478 47.6231C118.107 47.3664 117.879 47.0085 117.794 46.5494L118.619 46.418C118.685 46.6838 118.838 46.8952 119.076 47.0523C119.315 47.2063 119.611 47.2833 119.964 47.2833C120.299 47.2833 120.562 47.2139 120.752 47.0749C120.943 46.936 121.038 46.7472 121.038 46.5086C121.038 46.3697 121.006 46.2579 120.943 46.1733C120.879 46.0857 120.748 46.0042 120.549 45.9287C120.352 45.8532 120.055 45.7626 119.656 45.6568C119.224 45.5421 118.884 45.4228 118.637 45.2989C118.389 45.1751 118.212 45.0316 118.107 44.8685C118.001 44.7054 117.948 44.5076 117.948 44.275C117.948 43.9881 118.027 43.7374 118.184 43.5229C118.341 43.3055 118.56 43.1378 118.841 43.02C119.124 42.9022 119.454 42.8433 119.828 42.8433C120.2 42.8433 120.532 42.9022 120.825 43.02C121.118 43.1378 121.354 43.3055 121.532 43.5229C121.713 43.7374 121.82 43.9881 121.853 44.275L121.029 44.4245C120.99 44.1617 120.863 43.9548 120.648 43.8038C120.437 43.6528 120.163 43.5728 119.828 43.5637C119.511 43.5516 119.253 43.6075 119.053 43.7313C118.857 43.8552 118.759 44.0228 118.759 44.2342C118.759 44.352 118.795 44.4532 118.868 44.5378C118.943 44.6224 119.081 44.7024 119.28 44.7779C119.482 44.8534 119.775 44.9395 120.159 45.0362C120.591 45.1449 120.931 45.2642 121.178 45.3941C121.429 45.5209 121.607 45.6719 121.713 45.8471C121.819 46.0193 121.872 46.2322 121.872 46.4859C121.872 46.9571 121.698 47.3286 121.35 47.6005C121.003 47.8693 120.524 48.0037 119.914 48.0037ZM124.719 48.0037C124.136 48.0037 123.658 47.8768 123.283 47.6231C122.912 47.3664 122.683 47.0085 122.599 46.5494L123.423 46.418C123.49 46.6838 123.642 46.8952 123.881 47.0523C124.12 47.2063 124.416 47.2833 124.769 47.2833C125.104 47.2833 125.367 47.2139 125.557 47.0749C125.748 46.936 125.843 46.7472 125.843 46.5086C125.843 46.3697 125.811 46.2579 125.748 46.1733C125.684 46.0857 125.553 46.0042 125.354 45.9287C125.157 45.8532 124.86 45.7626 124.461 45.6568C124.029 45.5421 123.689 45.4228 123.442 45.2989C123.194 45.1751 123.017 45.0316 122.912 44.8685C122.806 44.7054 122.753 44.5076 122.753 44.275C122.753 43.9881 122.831 43.7374 122.989 43.5229C123.146 43.3055 123.365 43.1378 123.645 43.02C123.929 42.9022 124.259 42.8433 124.633 42.8433C125.005 42.8433 125.337 42.9022 125.63 43.02C125.923 43.1378 126.158 43.3055 126.337 43.5229C126.518 43.7374 126.625 43.9881 126.658 44.275L125.834 44.4245C125.794 44.1617 125.668 43.9548 125.453 43.8038C125.242 43.6528 124.968 43.5728 124.633 43.5637C124.316 43.5516 124.058 43.6075 123.858 43.7313C123.662 43.8552 123.564 44.0228 123.564 44.2342C123.564 44.352 123.6 44.4532 123.673 44.5378C123.748 44.6224 123.886 44.7024 124.085 44.7779C124.287 44.8534 124.58 44.9395 124.964 45.0362C125.396 45.1449 125.736 45.2642 125.983 45.3941C126.234 45.5209 126.412 45.6719 126.518 45.8471C126.624 46.0193 126.676 46.2322 126.676 46.4859C126.676 46.9571 126.503 47.3286 126.155 47.6005C125.808 47.8693 125.329 48.0037 124.719 48.0037ZM131.338 48.0037C130.755 48.0037 130.276 47.8768 129.902 47.6231C129.53 47.3664 129.302 47.0085 129.218 46.5494L130.042 46.418C130.109 46.6838 130.261 46.8952 130.5 47.0523C130.739 47.2063 131.035 47.2833 131.388 47.2833C131.723 47.2833 131.986 47.2139 132.176 47.0749C132.367 46.936 132.462 46.7472 132.462 46.5086C132.462 46.3697 132.43 46.2579 132.367 46.1733C132.303 46.0857 132.172 46.0042 131.972 45.9287C131.776 45.8532 131.479 45.7626 131.08 45.6568C130.648 45.5421 130.308 45.4228 130.061 45.2989C129.813 45.1751 129.636 45.0316 129.53 44.8685C129.425 44.7054 129.372 44.5076 129.372 44.275C129.372 43.9881 129.45 43.7374 129.607 43.5229C129.765 43.3055 129.984 43.1378 130.264 43.02C130.548 42.9022 130.878 42.8433 131.252 42.8433C131.624 42.8433 131.956 42.9022 132.249 43.02C132.542 43.1378 132.777 43.3055 132.956 43.5229C133.137 43.7374 133.244 43.9881 133.277 44.275L132.453 44.4245C132.413 44.1617 132.287 43.9548 132.072 43.8038C131.861 43.6528 131.587 43.5728 131.252 43.5637C130.935 43.5516 130.677 43.6075 130.477 43.7313C130.281 43.8552 130.183 44.0228 130.183 44.2342C130.183 44.352 130.219 44.4532 130.292 44.5378C130.367 44.6224 130.505 44.7024 130.704 44.7779C130.906 44.8534 131.199 44.9395 131.583 45.0362C132.015 45.1449 132.355 45.2642 132.602 45.3941C132.853 45.5209 133.031 45.6719 133.137 45.8471C133.243 46.0193 133.295 46.2322 133.295 46.4859C133.295 46.9571 133.122 47.3286 132.774 47.6005C132.427 47.8693 131.948 48.0037 131.338 48.0037ZM134.797 50.047L135.744 47.4736L135.758 48.2348L133.619 42.9793H134.466L136.143 47.2063H135.853L137.425 42.9793H138.245L135.581 50.047H134.797ZM140.842 48.0037C140.259 48.0037 139.78 47.8768 139.406 47.6231C139.034 47.3664 138.806 47.0085 138.722 46.5494L139.546 46.418C139.613 46.6838 139.765 46.8952 140.004 47.0523C140.242 47.2063 140.538 47.2833 140.892 47.2833C141.227 47.2833 141.49 47.2139 141.68 47.0749C141.87 46.936 141.965 46.7472 141.965 46.5086C141.965 46.3697 141.934 46.2579 141.87 46.1733C141.807 46.0857 141.675 46.0042 141.476 45.9287C141.28 45.8532 140.982 45.7626 140.584 45.6568C140.152 45.5421 139.812 45.4228 139.564 45.2989C139.317 45.1751 139.14 45.0316 139.034 44.8685C138.928 44.7054 138.876 44.5076 138.876 44.275C138.876 43.9881 138.954 43.7374 139.111 43.5229C139.268 43.3055 139.487 43.1378 139.768 43.02C140.052 42.9022 140.381 42.8433 140.756 42.8433C141.127 42.8433 141.46 42.9022 141.752 43.02C142.045 43.1378 142.281 43.3055 142.459 43.5229C142.64 43.7374 142.748 43.9881 142.781 44.275L141.956 44.4245C141.917 44.1617 141.79 43.9548 141.576 43.8038C141.364 43.6528 141.091 43.5728 140.756 43.5637C140.439 43.5516 140.18 43.6075 139.981 43.7313C139.785 43.8552 139.687 44.0228 139.687 44.2342C139.687 44.352 139.723 44.4532 139.795 44.5378C139.871 44.6224 140.008 44.7024 140.208 44.7779C140.41 44.8534 140.703 44.9395 141.086 45.0362C141.518 45.1449 141.858 45.2642 142.106 45.3941C142.357 45.5209 142.535 45.6719 142.64 45.8471C142.746 46.0193 142.799 46.2322 142.799 46.4859C142.799 46.9571 142.625 47.3286 142.278 47.6005C141.931 47.8693 141.452 48.0037 140.842 48.0037ZM146.53 47.8723C146.24 47.9297 145.953 47.9524 145.669 47.9403C145.389 47.9312 145.138 47.8753 144.917 47.7726C144.697 47.6669 144.529 47.5038 144.414 47.2833C144.318 47.09 144.265 46.8952 144.256 46.6989C144.25 46.4995 144.247 46.2745 144.247 46.0238V41.6201H145.053V45.9876C145.053 46.1869 145.055 46.3576 145.058 46.4995C145.064 46.6415 145.096 46.7638 145.153 46.8665C145.262 47.0598 145.434 47.1731 145.669 47.2063C145.908 47.2395 146.195 47.2305 146.53 47.1791V47.8723ZM143.255 43.6453V42.9793H146.53V43.6453H143.255ZM149.44 48.0082C148.96 48.0082 148.54 47.9025 148.181 47.6911C147.825 47.4766 147.547 47.1791 147.347 46.7986C147.148 46.415 147.048 45.9679 147.048 45.4575C147.048 44.9229 147.146 44.4608 147.343 44.0711C147.539 43.6785 147.812 43.3764 148.163 43.165C148.516 42.9506 148.93 42.8433 149.404 42.8433C149.897 42.8433 150.315 42.9566 150.659 43.1831C151.007 43.4097 151.266 43.7328 151.438 44.1527C151.614 44.5725 151.689 45.0724 151.665 45.6523H150.849V45.3624C150.84 44.7613 150.718 44.3128 150.482 44.0168C150.247 43.7177 149.897 43.5682 149.431 43.5682C148.933 43.5682 148.554 43.7283 148.294 44.0485C148.034 44.3686 147.905 44.8277 147.905 45.4258C147.905 46.0027 148.034 46.4497 148.294 46.7668C148.554 47.084 148.924 47.2426 149.404 47.2426C149.727 47.2426 150.008 47.1686 150.247 47.0206C150.485 46.8726 150.673 46.6596 150.809 46.3817L151.583 46.649C151.393 47.081 151.106 47.4162 150.723 47.6548C150.342 47.8904 149.915 48.0082 149.44 48.0082ZM147.633 45.6523V45.0044H151.248V45.6523H147.633ZM158.39 47.8723L158.394 44.7417C158.394 44.3762 158.296 44.0908 158.1 43.8854C157.907 43.677 157.654 43.5728 157.343 43.5728C157.162 43.5728 156.99 43.615 156.827 43.6996C156.664 43.7812 156.531 43.911 156.428 44.0893C156.325 44.2644 156.274 44.4895 156.274 44.7643L155.848 44.5922C155.842 44.2448 155.913 43.9413 156.061 43.6815C156.212 43.4187 156.418 43.2148 156.677 43.0699C156.937 42.9249 157.23 42.8524 157.556 42.8524C158.067 42.8524 158.468 43.0079 158.761 43.319C159.054 43.6271 159.201 44.0424 159.201 44.565L159.196 47.8723H158.39ZM152.536 47.8723V42.9793H153.257V44.2886H153.347V47.8723H152.536ZM155.468 47.8723L155.472 44.7734C155.472 44.3988 155.376 44.1059 155.182 43.8944C154.989 43.68 154.732 43.5728 154.412 43.5728C154.095 43.5728 153.838 43.6815 153.642 43.899C153.446 44.1164 153.347 44.4049 153.347 44.7643L152.922 44.5106C152.922 44.1935 152.997 43.9095 153.148 43.6588C153.299 43.4082 153.504 43.2118 153.764 43.0699C154.024 42.9249 154.318 42.8524 154.648 42.8524C154.977 42.8524 155.264 42.9219 155.508 43.0608C155.753 43.1997 155.942 43.3991 156.075 43.6588C156.208 43.9156 156.274 44.2222 156.274 44.5786L156.27 47.8723H155.468ZM162.23 48.0037C161.647 48.0037 161.168 47.8768 160.793 47.6231C160.422 47.3664 160.194 47.0085 160.109 46.5494L160.934 46.418C161 46.6838 161.153 46.8952 161.391 47.0523C161.63 47.2063 161.926 47.2833 162.279 47.2833C162.615 47.2833 162.877 47.2139 163.068 47.0749C163.258 46.936 163.353 46.7472 163.353 46.5086C163.353 46.3697 163.321 46.2579 163.258 46.1733C163.195 46.0857 163.063 46.0042 162.864 45.9287C162.667 45.8532 162.37 45.7626 161.971 45.6568C161.539 45.5421 161.2 45.4228 160.952 45.2989C160.704 45.1751 160.528 45.0316 160.422 44.8685C160.316 44.7054 160.263 44.5076 160.263 44.275C160.263 43.9881 160.342 43.7374 160.499 43.5229C160.656 43.3055 160.875 43.1378 161.156 43.02C161.44 42.9022 161.769 42.8433 162.143 42.8433C162.515 42.8433 162.847 42.9022 163.14 43.02C163.433 43.1378 163.669 43.3055 163.847 43.5229C164.028 43.7374 164.135 43.9881 164.169 44.275L163.344 44.4245C163.305 44.1617 163.178 43.9548 162.963 43.8038C162.752 43.6528 162.479 43.5728 162.143 43.5637C161.826 43.5516 161.568 43.6075 161.369 43.7313C161.172 43.8552 161.074 44.0228 161.074 44.2342C161.074 44.352 161.11 44.4532 161.183 44.5378C161.258 44.6224 161.396 44.7024 161.595 44.7779C161.798 44.8534 162.091 44.9395 162.474 45.0362C162.906 45.1449 163.246 45.2642 163.494 45.3941C163.744 45.5209 163.922 45.6719 164.028 45.8471C164.134 46.0193 164.187 46.2322 164.187 46.4859C164.187 46.9571 164.013 47.3286 163.666 47.6005C163.318 47.8693 162.84 48.0037 162.23 48.0037Z" fill="#F89F1C"/>
<path d="M87.1117 18.3328C83.1532 18.3328 82.3893 17.9855 80.0975 17.9855C75.3404 17.9855 72.1111 20.937 72.1111 25.1386C72.1111 28.9929 75.514 31.9443 79.9239 31.9443C80.3753 31.9443 80.792 31.9096 81.2087 31.8749C83.1185 32.0832 84.2643 33.4722 84.2643 35.4514C84.2643 37.5695 82.6323 39.0279 80.1323 39.0279C75.2015 38.9932 76.2085 33.6458 73.639 33.6458C72.4931 33.6458 71.9723 34.4444 71.9723 35.2778C71.9723 37.7431 74.7501 40.3127 79.9934 40.3127C84.7852 40.3127 88.3617 38.3682 88.3617 35.2778C88.3617 33.368 87.0769 31.8054 84.056 31.111C86.5214 29.9651 88.0839 27.7428 88.0839 24.9649C88.0839 23.2635 87.1811 21.4926 85.8963 20.3467C86.938 20.0689 88.1881 20.2078 88.6048 19.305C88.9173 18.7842 88.6395 18.3328 87.1117 18.3328ZM76.1391 23.3677C76.1391 21.0065 77.3891 19.305 79.4378 19.305C82.2157 19.305 84.056 22.7079 84.056 26.4928C84.056 28.854 82.7365 30.5901 80.5837 30.5901C78.153 30.5901 76.1391 27.2914 76.1391 23.3677ZM91.5584 35H96.8364C97.2878 35 97.6003 34.7917 97.6003 34.4791V34.375C97.6003 33.5763 96.1766 33.4722 96.1766 32.118V9.54774C96.1766 9.02689 95.7252 8.61021 94.9266 8.99217L91.4195 10.7283C91.0723 10.902 90.8292 11.0408 90.8292 11.3534V11.4575C90.8292 12.0826 92.114 12.3603 92.114 13.8187V32.118C92.114 33.4722 90.8292 33.5763 90.8292 34.375V34.4791C90.8292 34.7917 91.107 35 91.5584 35ZM109.053 35.3472C114.088 35.3472 117.422 31.5277 117.422 26.7706C117.422 21.9787 113.741 17.9855 108.255 17.9855C103.498 17.9855 99.6433 21.562 99.6433 26.4928C99.6433 31.111 103.15 35.3472 109.053 35.3472ZM109.574 34.0277C106.067 34.0277 103.741 29.4443 103.741 25.1386C103.741 21.319 105.338 19.305 107.803 19.305C110.998 19.305 113.324 23.3329 113.324 28.1942C113.324 31.9443 111.727 34.0277 109.574 34.0277ZM129.48 17.9855C127.605 17.9855 125.973 18.6453 124.896 19.8259V9.58247C124.896 8.85328 124.376 8.64493 123.646 8.99217L120.07 10.6936C119.549 10.9367 119.375 11.0756 119.375 11.3881V11.4923C119.375 12.2562 120.869 12.3603 120.869 13.8534V32.0832C120.869 33.4722 119.549 33.6805 119.549 34.4097V34.5139C119.549 34.8264 119.792 35 120.174 35L123.924 35.0694C124.376 35.0694 124.619 34.8611 124.619 34.4097L124.584 33.1597C125.765 34.5486 127.431 35.3472 129.515 35.3472C133.89 35.3472 137.536 31.6666 137.536 26.3886C137.536 21.1106 133.647 17.9855 129.48 17.9855ZM129.029 34.0277C126.91 34.0277 124.896 31.6318 124.896 29.097V23.2288C124.896 21.0065 126.528 19.305 128.473 19.305C131.459 19.305 133.438 22.7079 133.438 27.6734C133.438 31.736 131.772 34.0277 129.029 34.0277ZM154.694 31.8749L154 25.208C153.514 20.7287 150.701 17.9855 146.326 17.9855C142.611 17.9855 139.902 19.687 139.902 21.8746C139.902 22.8468 140.562 23.4718 141.604 23.4718C143.791 23.4718 143.097 19.2703 146.326 19.2703C148.757 19.2703 149.59 21.3537 149.972 25.3816L150.041 26.0761C149.104 25.3469 147.715 24.8955 146.013 24.8955C142.506 24.8955 139.659 26.7011 139.694 30.104C139.694 33.5069 142.402 35.3472 146.187 35.3472C148.652 35.3472 150.215 34.4097 151.014 33.1249C151.152 34.8264 152.021 35.2083 153.791 35.2083C155.285 35.2083 156.604 35 156.604 34.3403C156.604 33.4374 154.937 34.1319 154.694 31.8749ZM147.333 34.0277C145.18 34.0277 143.791 31.9791 143.791 29.6179C143.791 27.5345 145.145 26.215 147.055 26.215C148.895 26.215 150.215 27.465 150.354 29.4443L150.458 30.5207C150.562 32.3957 149.277 34.0277 147.333 34.0277ZM158.496 35H163.774C164.225 35 164.538 34.7917 164.538 34.4791V34.375C164.538 33.5763 163.114 33.4722 163.114 32.118V9.54774C163.114 9.02689 162.663 8.61021 161.864 8.99217L158.357 10.7283C158.01 10.902 157.767 11.0408 157.767 11.3534V11.4575C157.767 12.0826 159.051 12.3603 159.051 13.8187V32.118C159.051 33.4722 157.767 33.5763 157.767 34.375V34.4791C157.767 34.7917 158.045 35 158.496 35Z" fill="#005DF2"/>
<path d="M55.8771 29.3947C55.8771 42.8679 44.7664 53.7893 31.0618 53.7893C17.3571 53.7893 6.2464 42.8679 6.2464 29.3947C6.2464 15.9215 17.3571 5.00002 31.0618 5.00002C34.4151 4.99569 37.7343 5.66186 40.8175 6.95804L37.1954 14.9797C34.0475 13.6849 30.5592 13.4203 27.2465 14.2251C23.9338 15.0298 20.9725 16.8613 18.8005 19.4485C16.6285 22.0358 15.3612 25.2415 15.1859 28.5915C15.0106 31.9416 15.9367 35.2582 17.8272 38.0509C19.7177 40.8435 22.4723 42.964 25.6835 44.0986C28.8947 45.2333 32.3921 45.3219 35.6586 44.3514C38.925 43.3809 41.787 41.4027 43.8213 38.7095C45.8557 36.0163 46.9543 32.751 46.9548 29.3965C46.9548 29.3403 46.9548 29.2851 46.9548 29.2299L35.9508 35.8579L31.53 29.0725L44.4826 21.4751L44.7776 21.5C44.7495 21.4503 44.7196 21.4024 44.6896 21.3536L52.3533 16.8577C52.7901 17.5713 53.1886 18.3069 53.5473 19.0615C54.3301 20.7017 54.9231 22.4232 55.3153 24.1935C55.6902 25.9027 55.8786 27.6462 55.8771 29.3947Z" fill="#005DF2"/>
<path d="M63.6766 15.856C60.6079 10.0225 43.976 12.4822 26.5266 21.3508C22.6159 23.3299 18.844 25.5635 15.236 28.0367C15.1967 28.4841 15.1771 28.9367 15.1771 29.3946C15.1768 30.0978 15.2247 30.8002 15.3203 31.4971C18.8553 28.4059 23.5553 25.2521 28.9828 22.4941C42.5976 15.5743 55.6298 13.7608 58.0917 18.4437C59.1218 20.3943 58.146 23.1652 55.6785 26.2352C53.5069 28.9361 50.1779 31.8672 46.0333 34.6748C43.4256 36.4309 40.7083 38.0245 37.8976 39.4461C33.8298 41.5136 29.8144 43.1283 26.1173 44.244C20.7095 45.8807 15.9833 46.4625 12.7714 45.8743C10.8283 45.519 9.44049 44.7356 8.78968 43.4983C8.27089 42.5115 8.26246 41.3148 8.70165 39.9763C7.88681 38.3153 7.26787 36.5681 6.85689 34.7687C1.4256 39.9791 -1.15145 44.8469 0.489173 47.9704C2.31708 51.4455 8.95917 51.9775 17.7195 49.9643C22.1797 48.9397 27.1886 47.2551 32.3914 44.9639C34.1238 44.2016 35.8718 43.3731 37.6354 42.4784C39.5938 41.4836 41.4748 40.4544 43.2783 39.3908C48.1964 36.4957 52.4759 33.4072 55.8583 30.3998C62.2691 24.6905 65.4595 19.2455 63.6766 15.856Z" fill="#F89F1C"/>
<path d="M21 41.5L33.9693 44.2515L15.2005 61L16.5152 50.2277L21.4811 48.8773L21 41.5Z" fill="white"/>
<path d="M18.7346 46.5934L13.7818 40.2029L29.879 45.2236L17.6783 56.7231L18.6569 49.0273L18.7346 46.5934Z" fill="#F89F1C"/>
<path d="M64.141 18.4595C64.141 35.162 28.3817 49.3753 28.1026 49.4821L33.9646 44.2515C35.1801 43.6906 36.4025 43.0984 37.6317 42.4749C52.7868 34.7763 63.5688 24.7781 64.141 18.4595Z" fill="white"/>
</svg>
