<svg width="111" height="111" viewBox="0 0 111 111" fill="none" xmlns="http://www.w3.org/2000/svg">
<path d="M54.5001 0L56.9482 5.13044L62.584 5.87336L58.4612 9.78706L59.4962 15.3766L54.5001 12.665L49.5039 15.3766L50.5389 9.78706L46.4161 5.87336L52.0519 5.13044L54.5001 0Z" fill="#77ABFF"/>
<path d="M55.5001 33L62.8297 44.4116L75.9478 47.8561L67.3597 58.3534L68.1374 71.8939L55.5001 66.97L42.8627 71.8939L43.6404 58.3534L35.0523 47.8561L48.1704 44.4116L55.5001 33Z" fill="#005DF2"/>
<path d="M102.5 46L104.948 51.1304L110.584 51.8734L106.461 55.7871L107.496 61.3766L102.5 58.665L97.5039 61.3766L98.5389 55.7871L94.4161 51.8734L100.052 51.1304L102.5 46Z" fill="#77ABFF"/>
<path d="M54.5001 111L56.9482 105.87L62.584 105.127L58.4612 101.213L59.4962 95.6234L54.5001 98.335L49.5039 95.6234L50.5389 101.213L46.4161 105.127L52.0519 105.87L54.5001 111Z" fill="#77ABFF"/>
<path d="M106.621 75.6102L102.299 71.9176L103.04 66.2815L98.1923 69.2509L93.0611 66.8045L94.3872 72.3322L90.4749 76.4564L96.1419 76.9033L98.8552 81.8986L101.031 76.647L106.621 75.6102Z" fill="#77ABFF"/>
<path d="M94.3005 94.5626L92.977 89.0342L96.8913 84.912L91.2245 84.4624L88.5137 79.4658L86.3349 84.7163L80.7451 85.7504L85.0654 89.4451L84.3216 95.0808L89.1704 92.1137L94.3005 94.5626Z" fill="#77ABFF"/>
<path d="M75.6103 106.621L76.6472 101.031L81.8987 98.8551L76.9034 96.1418L76.4565 90.4748L72.3324 94.3871L66.8046 93.061L69.2511 98.1922L66.2817 103.04L71.9178 102.299L75.6103 106.621Z" fill="#77ABFF"/>
<path d="M106.621 33.2104L102.299 36.9029L103.04 42.539L98.1923 39.5696L93.0611 42.0161L94.3872 36.4883L90.4749 32.3642L96.1419 31.9173L98.8552 26.922L101.031 32.1735L106.621 33.2104Z" fill="#77ABFF"/>
<path d="M94.3005 14.2579L92.977 19.7863L96.8913 23.9085L91.2245 24.3582L88.5137 29.3548L86.3349 24.1043L80.7451 23.0701L85.0654 19.3755L84.3216 13.7397L89.1704 16.7068L94.3005 14.2579Z" fill="#77ABFF"/>
<path d="M75.6103 2.19996L76.6472 7.78921L81.8987 9.96548L76.9034 12.6788L76.4565 18.3458L72.3324 14.4334L66.8046 15.7596L69.2511 10.6283L66.2817 5.7809L71.9178 6.52197L75.6103 2.19996Z" fill="#77ABFF"/>
<path d="M8.50006 46L6.05194 51.1304L0.41608 51.8734L4.53891 55.7871L3.50389 61.3766L8.50006 58.665L13.4962 61.3766L12.4612 55.7871L16.584 51.8734L10.9482 51.1304L8.50006 46Z" fill="#77ABFF"/>
<path d="M4.37944 75.6102L8.70145 71.9176L7.96038 66.2815L12.8078 69.2509L17.939 66.8045L16.6129 72.3322L20.5252 76.4564L14.8582 76.9033L12.145 81.8986L9.96869 76.647L4.37944 75.6102Z" fill="#77ABFF"/>
<path d="M16.6996 94.5626L18.0231 89.0342L14.1088 84.912L19.7756 84.4624L22.4865 79.4658L24.6652 84.7163L30.255 85.7504L25.9347 89.4451L26.6785 95.0808L21.8297 92.1137L16.6996 94.5626Z" fill="#77ABFF"/>
<path d="M35.3898 106.621L34.3529 101.031L29.1014 98.8551L34.0967 96.1418L34.5436 90.4748L38.6677 94.3871L44.1955 93.061L41.749 98.1922L44.7185 103.04L39.0824 102.299L35.3898 106.621Z" fill="#77ABFF"/>
<path d="M4.37944 33.2104L8.70145 36.9029L7.96038 42.539L12.8078 39.5696L17.939 42.0161L16.6129 36.4883L20.5252 32.3642L14.8582 31.9173L12.145 26.922L9.96869 32.1735L4.37944 33.2104Z" fill="#77ABFF"/>
<path d="M16.6996 14.2579L18.0231 19.7863L14.1088 23.9085L19.7756 24.3582L22.4865 29.3548L24.6652 24.1043L30.255 23.0701L25.9347 19.3755L26.6785 13.7397L21.8297 16.7068L16.6996 14.2579Z" fill="#77ABFF"/>
<path d="M35.3898 2.19996L34.3529 7.78921L29.1014 9.96548L34.0967 12.6788L34.5436 18.3458L38.6677 14.4334L44.1955 15.7596L41.749 10.6283L44.7185 5.7809L39.0824 6.52197L35.3898 2.19996Z" fill="#77ABFF"/>
</svg>
