<svg width="134" height="145" viewBox="0 0 134 145" fill="none" xmlns="http://www.w3.org/2000/svg">
<path d="M108.105 53.2632C108.105 60.551 101.85 66.3802 94.4146 65.6721C87.9321 65.0538 83.1725 59.2395 83.1725 52.7271V40.7968C83.1725 38.0418 85.404 35.8103 88.159 35.8103H103.119C105.874 35.8103 108.105 38.0418 108.105 40.7968V43.2901L113.092 53.2632H108.105Z" fill="#B6D2FF"/>
<path d="M70.4656 75.0586C70.4656 70.088 74.495 66.0586 79.4656 66.0586H114.604C119.574 66.0586 123.604 70.088 123.604 75.0586V114.576H79.4656C74.495 114.576 70.4656 110.546 70.4656 105.576V75.0586Z" fill="#005DF2"/>
<path d="M96.2094 81.0758L88.9483 66.0586H102.81L96.2094 81.0758Z" fill="white"/>
<path d="M6.10352e-05 90.1034H134V100.5H6.10352e-05V90.1034Z" fill="#454A6D"/>
<path d="M6.93109 100.5H127.069V113.207H6.93109V100.5Z" fill="#33385C"/>
<path d="M6.10352e-05 113.207H134V144.397H6.10352e-05V113.207Z" fill="#454A6D"/>
<circle cx="13.8621" cy="12.7069" r="12.7069" fill="white"/>
<circle cx="28.3018" cy="9.81897" r="9.81897" fill="white"/>
<circle cx="43.8966" cy="10.3966" r="10.3966" fill="white"/>
<circle cx="47.9397" cy="25.9914" r="8.66379" fill="white"/>
<circle cx="64.1121" cy="32.9224" r="5.19828" fill="white"/>
<circle cx="76.2415" cy="38.1207" r="3.46552" fill="white"/>
<circle cx="20.7932" cy="25.4138" r="11.5517" fill="white"/>
<circle cx="9.81903" cy="24.8362" r="9.81897" fill="white"/>
<circle cx="36.388" cy="24.8362" r="9.81897" fill="white"/>
<circle cx="26.0001" cy="18" r="14" fill="url(#paint0_linear_1_300)"/>
<circle cx="25.6517" cy="27.5203" r="1.35903" fill="#636B9E"/>
<path d="M22.9337 22.0842H28.3698V27.1998C28.3698 27.7521 27.922 28.1998 27.3698 28.1998H23.9337C23.3814 28.1998 22.9337 27.7521 22.9337 27.1998V22.0842Z" fill="#454A6D"/>
<circle cx="25.6517" cy="16.648" r="6.79513" fill="url(#paint1_linear_1_300)"/>
<circle cx="25.6517" cy="19.3661" r="4.07708" fill="url(#paint2_linear_1_300)"/>
<rect x="24.2927" y="24.1227" width="2.71805" height="0.679513" rx="0.339757" fill="#858FCD"/>
<rect x="24.2927" y="25.4818" width="2.71805" height="0.679513" rx="0.339757" fill="#858FCD"/>
<rect x="24.2927" y="26.8408" width="2.71805" height="0.679513" rx="0.339757" fill="#858FCD"/>
<defs>
<linearGradient id="paint0_linear_1_300" x1="26.0001" y1="4" x2="26.0001" y2="32" gradientUnits="userSpaceOnUse">
<stop stop-color="#005DF2"/>
<stop offset="1" stop-color="#DEE9FF" stop-opacity="0"/>
</linearGradient>
<linearGradient id="paint1_linear_1_300" x1="25.6517" y1="9.85291" x2="25.6517" y2="23.4432" gradientUnits="userSpaceOnUse">
<stop stop-color="#005DF2"/>
<stop offset="1" stop-color="#403CFF" stop-opacity="0"/>
</linearGradient>
<linearGradient id="paint2_linear_1_300" x1="25.6517" y1="15.2891" x2="25.6517" y2="23.4432" gradientUnits="userSpaceOnUse">
<stop stop-color="white"/>
<stop offset="1" stop-color="#FFF6DE" stop-opacity="0"/>
</linearGradient>
</defs>
</svg>
