<svg width="230" height="79" viewBox="0 0 230 79" fill="none" xmlns="http://www.w3.org/2000/svg">
<path d="M115.65 70.4274C114.982 70.4274 114.379 70.3138 113.841 70.0867C113.308 69.8595 112.867 69.5361 112.517 69.1167C112.172 68.6929 111.947 68.1926 111.842 67.6159L113.048 67.4258C113.201 68.02 113.518 68.4854 113.999 68.8218C114.484 69.1538 115.054 69.3199 115.709 69.3199C116.133 69.3199 116.515 69.2543 116.856 69.1233C117.201 68.9878 117.474 68.7956 117.675 68.5465C117.876 68.2975 117.977 68.0026 117.977 67.6618C117.977 67.4521 117.94 67.2729 117.865 67.1244C117.795 66.9715 117.697 66.8426 117.57 66.7377C117.448 66.6285 117.308 66.5367 117.151 66.4624C116.994 66.3882 116.83 66.327 116.659 66.2789L114.254 65.5646C113.992 65.4859 113.739 65.3876 113.494 65.2697C113.249 65.1473 113.031 64.9966 112.839 64.8175C112.646 64.634 112.493 64.4155 112.38 64.1621C112.266 63.9043 112.209 63.6007 112.209 63.2511C112.209 62.6919 112.354 62.2156 112.642 61.8224C112.935 61.4248 113.33 61.1212 113.828 60.9115C114.326 60.7017 114.888 60.5991 115.513 60.6034C116.146 60.6078 116.712 60.7214 117.21 60.9442C117.712 61.1627 118.127 61.4773 118.455 61.888C118.787 62.2987 119.01 62.7902 119.124 63.3625L117.885 63.5788C117.819 63.1943 117.673 62.8645 117.446 62.5892C117.223 62.3096 116.943 62.0955 116.607 61.9469C116.271 61.794 115.901 61.7154 115.499 61.711C115.115 61.7066 114.768 61.7678 114.457 61.8945C114.147 62.0212 113.9 62.1982 113.717 62.4254C113.533 62.6482 113.442 62.906 113.442 63.1987C113.442 63.4871 113.525 63.7208 113.691 63.8999C113.857 64.0747 114.06 64.2145 114.3 64.3194C114.545 64.4199 114.783 64.5029 115.014 64.5684L116.81 65.0862C117.016 65.143 117.251 65.2216 117.518 65.3221C117.789 65.4226 118.051 65.5646 118.304 65.7481C118.558 65.9272 118.768 66.1675 118.934 66.469C119.1 66.7661 119.183 67.1419 119.183 67.5962C119.183 68.0506 119.091 68.4548 118.907 68.8087C118.728 69.1626 118.477 69.4597 118.154 69.7C117.83 69.9359 117.455 70.1151 117.026 70.2374C116.598 70.3641 116.14 70.4274 115.65 70.4274ZM123.244 70.4143C122.79 70.4143 122.399 70.3422 122.071 70.1981C121.748 70.0539 121.479 69.8616 121.265 69.6213C121.051 69.381 120.883 69.1145 120.761 68.8218C120.638 68.5291 120.551 68.2298 120.498 67.9239C120.45 67.6181 120.426 67.3319 120.426 67.0654V63.1528H121.606V66.6984C121.606 67.0304 121.637 67.3516 121.698 67.6618C121.759 67.972 121.862 68.2516 122.006 68.5007C122.154 68.7497 122.351 68.9463 122.596 69.0905C122.845 69.2347 123.155 69.3068 123.526 69.3068C123.819 69.3068 124.085 69.2565 124.326 69.156C124.566 69.0555 124.771 68.907 124.942 68.7104C125.112 68.5094 125.243 68.256 125.335 67.9501C125.427 67.6443 125.473 67.2882 125.473 66.8819L126.239 67.1178C126.239 67.7994 126.115 68.3871 125.866 68.8808C125.621 69.3745 125.274 69.7546 124.824 70.0211C124.378 70.2833 123.852 70.4143 123.244 70.4143ZM125.604 70.2308V68.3368H125.473V63.1528H126.646V70.2308H125.604ZM131.463 70.4274C130.746 70.4274 130.137 70.268 129.634 69.949C129.136 69.6257 128.756 69.1822 128.494 68.6186C128.232 68.055 128.096 67.4127 128.087 66.6918C128.096 65.9534 128.234 65.3046 128.5 64.7454C128.771 64.1818 129.158 63.7427 129.66 63.4281C130.163 63.1135 130.768 62.9562 131.476 62.9562C132.223 62.9562 132.865 63.1397 133.403 63.5067C133.944 63.8737 134.307 64.3762 134.49 65.0141L133.337 65.3614C133.188 64.9507 132.946 64.6318 132.61 64.4046C132.277 64.1774 131.895 64.0638 131.463 64.0638C130.978 64.0638 130.578 64.1774 130.263 64.4046C129.949 64.6274 129.715 64.9376 129.562 65.3352C129.409 65.7284 129.331 66.1806 129.326 66.6918C129.335 67.4783 129.516 68.114 129.87 68.599C130.228 69.0796 130.759 69.3199 131.463 69.3199C131.926 69.3199 132.31 69.215 132.616 69.0053C132.922 68.7912 133.154 68.4832 133.311 68.0812L134.49 68.3892C134.246 69.049 133.863 69.5536 133.344 69.9031C132.824 70.2527 132.197 70.4274 131.463 70.4274ZM138.618 70.4274C137.901 70.4274 137.292 70.268 136.789 69.949C136.291 69.6257 135.911 69.1822 135.649 68.6186C135.387 68.055 135.252 67.4127 135.243 66.6918C135.252 65.9534 135.389 65.3046 135.656 64.7454C135.927 64.1818 136.313 63.7427 136.816 63.4281C137.318 63.1135 137.923 62.9562 138.631 62.9562C139.378 62.9562 140.02 63.1397 140.558 63.5067C141.1 63.8737 141.462 64.3762 141.646 65.0141L140.492 65.3614C140.344 64.9507 140.101 64.6318 139.765 64.4046C139.433 64.1774 139.051 64.0638 138.618 64.0638C138.133 64.0638 137.733 64.1774 137.419 64.4046C137.104 64.6274 136.87 64.9376 136.717 65.3352C136.564 65.7284 136.486 66.1806 136.481 66.6918C136.49 67.4783 136.672 68.114 137.025 68.599C137.384 69.0796 137.915 69.3199 138.618 69.3199C139.081 69.3199 139.466 69.215 139.771 69.0053C140.077 68.7912 140.309 68.4832 140.466 68.0812L141.646 68.3892C141.401 69.049 141.019 69.5536 140.499 69.9031C139.979 70.2527 139.352 70.4274 138.618 70.4274ZM145.858 70.4274C145.164 70.4274 144.556 70.2745 144.037 69.9687C143.521 69.6585 143.119 69.2281 142.831 68.6776C142.542 68.1227 142.398 67.4761 142.398 66.7377C142.398 65.9644 142.54 65.2959 142.824 64.7323C143.108 64.1643 143.504 63.7274 144.01 63.4215C144.522 63.1113 145.12 62.9562 145.806 62.9562C146.518 62.9562 147.123 63.1201 147.621 63.4477C148.124 63.7754 148.5 64.2429 148.749 64.8502C149.002 65.4575 149.111 66.1806 149.076 67.0195H147.897V66.6001C147.884 65.7306 147.707 65.0818 147.366 64.6536C147.025 64.2211 146.518 64.0048 145.845 64.0048C145.124 64.0048 144.576 64.2364 144.2 64.6995C143.825 65.1626 143.637 65.8267 143.637 66.6918C143.637 67.5263 143.825 68.173 144.2 68.6317C144.576 69.0905 145.111 69.3199 145.806 69.3199C146.274 69.3199 146.68 69.2128 147.025 68.9987C147.37 68.7846 147.641 68.4766 147.838 68.0747L148.958 68.4613C148.683 69.0861 148.268 69.5711 147.713 69.9163C147.163 70.257 146.544 70.4274 145.858 70.4274ZM143.244 67.0195V66.0823H148.473V67.0195H143.244ZM153.209 70.4209C152.366 70.4209 151.674 70.2374 151.132 69.8704C150.594 69.499 150.265 68.9813 150.142 68.3171L151.335 68.1271C151.431 68.5116 151.652 68.8174 151.997 69.0446C152.342 69.2674 152.77 69.3789 153.281 69.3789C153.766 69.3789 154.147 69.2784 154.422 69.0774C154.697 68.8764 154.835 68.6033 154.835 68.2582C154.835 68.0572 154.789 67.8955 154.697 67.7732C154.605 67.6465 154.415 67.5285 154.127 67.4193C153.843 67.3101 153.413 67.179 152.836 67.0261C152.211 66.86 151.72 66.6875 151.361 66.5083C151.003 66.3292 150.747 66.1217 150.594 65.8857C150.442 65.6498 150.365 65.3636 150.365 65.0272C150.365 64.6121 150.479 64.2495 150.706 63.9393C150.933 63.6247 151.25 63.3822 151.656 63.2118C152.067 63.0414 152.543 62.9562 153.085 62.9562C153.622 62.9562 154.103 63.0414 154.527 63.2118C154.951 63.3822 155.291 63.6247 155.549 63.9393C155.811 64.2495 155.966 64.6121 156.014 65.0272L154.822 65.2435C154.765 64.8633 154.581 64.5641 154.271 64.3456C153.965 64.1271 153.57 64.0114 153.085 63.9983C152.626 63.9808 152.253 64.0616 151.964 64.2407C151.68 64.4199 151.538 64.6624 151.538 64.9682C151.538 65.1386 151.591 65.285 151.695 65.4073C151.805 65.5296 152.004 65.6454 152.292 65.7546C152.585 65.8639 153.008 65.9884 153.563 66.1282C154.188 66.2855 154.68 66.4581 155.038 66.646C155.401 66.8295 155.658 67.0479 155.811 67.3013C155.964 67.5504 156.041 67.8584 156.041 68.2254C156.041 68.907 155.789 69.4444 155.287 69.8376C154.784 70.2265 154.092 70.4209 153.209 70.4209ZM160.16 70.4209C159.317 70.4209 158.624 70.2374 158.082 69.8704C157.545 69.499 157.215 68.9813 157.093 68.3171L158.286 68.1271C158.382 68.5116 158.602 68.8174 158.947 69.0446C159.293 69.2674 159.721 69.3789 160.232 69.3789C160.717 69.3789 161.097 69.2784 161.372 69.0774C161.648 68.8764 161.785 68.6033 161.785 68.2582C161.785 68.0572 161.739 67.8955 161.648 67.7732C161.556 67.6465 161.366 67.5285 161.077 67.4193C160.793 67.3101 160.363 67.179 159.786 67.0261C159.162 66.86 158.67 66.6875 158.312 66.5083C157.954 66.3292 157.698 66.1217 157.545 65.8857C157.392 65.6498 157.316 65.3636 157.316 65.0272C157.316 64.6121 157.429 64.2495 157.656 63.9393C157.884 63.6247 158.2 63.3822 158.607 63.2118C159.017 63.0414 159.494 62.9562 160.035 62.9562C160.573 62.9562 161.053 63.0414 161.477 63.2118C161.901 63.3822 162.242 63.6247 162.5 63.9393C162.762 64.2495 162.917 64.6121 162.965 65.0272L161.772 65.2435C161.715 64.8633 161.532 64.5641 161.222 64.3456C160.916 64.1271 160.52 64.0114 160.035 63.9983C159.577 63.9808 159.203 64.0616 158.915 64.2407C158.631 64.4199 158.489 64.6624 158.489 64.9682C158.489 65.1386 158.541 65.285 158.646 65.4073C158.755 65.5296 158.954 65.6454 159.242 65.7546C159.535 65.8639 159.959 65.9884 160.514 66.1282C161.139 66.2855 161.63 66.4581 161.988 66.646C162.351 66.8295 162.609 67.0479 162.762 67.3013C162.915 67.5504 162.991 67.8584 162.991 68.2254C162.991 68.907 162.74 69.4444 162.237 69.8376C161.735 70.2265 161.042 70.4209 160.16 70.4209ZM169.734 70.4209C168.891 70.4209 168.199 70.2374 167.657 69.8704C167.12 69.499 166.79 68.9813 166.667 68.3171L167.86 68.1271C167.956 68.5116 168.177 68.8174 168.522 69.0446C168.867 69.2674 169.295 69.3789 169.807 69.3789C170.292 69.3789 170.672 69.2784 170.947 69.0774C171.222 68.8764 171.36 68.6033 171.36 68.2582C171.36 68.0572 171.314 67.8955 171.222 67.7732C171.13 67.6465 170.94 67.5285 170.652 67.4193C170.368 67.3101 169.938 67.179 169.361 67.0261C168.736 66.86 168.245 66.6875 167.886 66.5083C167.528 66.3292 167.272 66.1217 167.12 65.8857C166.967 65.6498 166.89 65.3636 166.89 65.0272C166.89 64.6121 167.004 64.2495 167.231 63.9393C167.458 63.6247 167.775 63.3822 168.181 63.2118C168.592 63.0414 169.068 62.9562 169.61 62.9562C170.147 62.9562 170.628 63.0414 171.052 63.2118C171.476 63.3822 171.816 63.6247 172.074 63.9393C172.336 64.2495 172.491 64.6121 172.539 65.0272L171.347 65.2435C171.29 64.8633 171.106 64.5641 170.796 64.3456C170.49 64.1271 170.095 64.0114 169.61 63.9983C169.151 63.9808 168.778 64.0616 168.489 64.2407C168.205 64.4199 168.063 64.6624 168.063 64.9682C168.063 65.1386 168.116 65.285 168.221 65.4073C168.33 65.5296 168.529 65.6454 168.817 65.7546C169.11 65.8639 169.534 65.9884 170.088 66.1282C170.713 66.2855 171.205 66.4581 171.563 66.646C171.926 66.8295 172.183 67.0479 172.336 67.3013C172.489 67.5504 172.566 67.8584 172.566 68.2254C172.566 68.907 172.314 69.4444 171.812 69.8376C171.31 70.2265 170.617 70.4209 169.734 70.4209ZM174.738 73.3766L176.108 69.6541L176.128 70.7551L173.034 63.1528H174.26L176.685 69.2674H176.265L178.539 63.1528H179.726L175.872 73.3766H174.738ZM183.482 70.4209C182.639 70.4209 181.946 70.2374 181.404 69.8704C180.867 69.499 180.537 68.9813 180.415 68.3171L181.608 68.1271C181.704 68.5116 181.924 68.8174 182.27 69.0446C182.615 69.2674 183.043 69.3789 183.554 69.3789C184.039 69.3789 184.419 69.2784 184.694 69.0774C184.97 68.8764 185.107 68.6033 185.107 68.2582C185.107 68.0572 185.061 67.8955 184.97 67.7732C184.878 67.6465 184.688 67.5285 184.399 67.4193C184.115 67.3101 183.685 67.179 183.108 67.0261C182.484 66.86 181.992 66.6875 181.634 66.5083C181.276 66.3292 181.02 66.1217 180.867 65.8857C180.714 65.6498 180.638 65.3636 180.638 65.0272C180.638 64.6121 180.751 64.2495 180.978 63.9393C181.206 63.6247 181.522 63.3822 181.929 63.2118C182.339 63.0414 182.816 62.9562 183.357 62.9562C183.895 62.9562 184.375 63.0414 184.799 63.2118C185.223 63.3822 185.564 63.6247 185.822 63.9393C186.084 64.2495 186.239 64.6121 186.287 65.0272L185.094 65.2435C185.037 64.8633 184.854 64.5641 184.544 64.3456C184.238 64.1271 183.842 64.0114 183.357 63.9983C182.899 63.9808 182.525 64.0616 182.237 64.2407C181.953 64.4199 181.811 64.6624 181.811 64.9682C181.811 65.1386 181.863 65.285 181.968 65.4073C182.077 65.5296 182.276 65.6454 182.564 65.7546C182.857 65.8639 183.281 65.9884 183.836 66.1282C184.461 66.2855 184.952 66.4581 185.31 66.646C185.673 66.8295 185.931 67.0479 186.084 67.3013C186.237 67.5504 186.313 67.8584 186.313 68.2254C186.313 68.907 186.062 69.4444 185.559 69.8376C185.057 70.2265 184.365 70.4209 183.482 70.4209ZM191.71 70.2308C191.291 70.3138 190.876 70.3466 190.465 70.3291C190.059 70.316 189.696 70.2352 189.377 70.0867C189.058 69.9337 188.816 69.6978 188.65 69.3789C188.51 69.0992 188.434 68.8174 188.42 68.5334C188.412 68.2451 188.407 67.9196 188.407 67.5569V61.1867H189.574V67.5045C189.574 67.7929 189.576 68.0397 189.58 68.2451C189.589 68.4504 189.635 68.6274 189.718 68.7759C189.875 69.0555 190.124 69.2194 190.465 69.2674C190.81 69.3155 191.225 69.3024 191.71 69.2281V70.2308ZM186.972 64.1162V63.1528H191.71V64.1162H186.972ZM195.92 70.4274C195.225 70.4274 194.618 70.2745 194.098 69.9687C193.583 69.6585 193.181 69.2281 192.892 68.6776C192.604 68.1227 192.46 67.4761 192.46 66.7377C192.46 65.9644 192.602 65.2959 192.886 64.7323C193.17 64.1643 193.565 63.7274 194.072 63.4215C194.583 63.1113 195.182 62.9562 195.868 62.9562C196.58 62.9562 197.185 63.1201 197.683 63.4477C198.186 63.7754 198.561 64.2429 198.81 64.8502C199.064 65.4575 199.173 66.1806 199.138 67.0195H197.958V66.6001C197.945 65.7306 197.768 65.0818 197.428 64.6536C197.087 64.2211 196.58 64.0048 195.907 64.0048C195.186 64.0048 194.638 64.2364 194.262 64.6995C193.886 65.1626 193.698 65.8267 193.698 66.6918C193.698 67.5263 193.886 68.173 194.262 68.6317C194.638 69.0905 195.173 69.3199 195.868 69.3199C196.335 69.3199 196.742 69.2128 197.087 68.9987C197.432 68.7846 197.703 68.4766 197.899 68.0747L199.02 68.4613C198.745 69.0861 198.33 69.5711 197.775 69.9163C197.224 70.257 196.606 70.4274 195.92 70.4274ZM193.305 67.0195V66.0823H198.535V67.0195H193.305ZM208.866 70.2308L208.873 65.7022C208.873 65.1736 208.731 64.7607 208.447 64.4636C208.167 64.1621 207.802 64.0114 207.352 64.0114C207.09 64.0114 206.841 64.0725 206.605 64.1949C206.369 64.3128 206.177 64.5007 206.028 64.7585C205.88 65.0119 205.805 65.3374 205.805 65.735L205.189 65.4859C205.181 64.9835 205.283 64.5444 205.497 64.1686C205.716 63.7885 206.013 63.4936 206.389 63.2839C206.764 63.0742 207.188 62.9693 207.66 62.9693C208.399 62.9693 208.98 63.1943 209.403 63.6444C209.827 64.09 210.039 64.6908 210.039 65.4466L210.033 70.2308H208.866ZM200.399 70.2308V63.1528H201.441V65.0468H201.572V70.2308H200.399ZM204.639 70.2308L204.645 65.7481C204.645 65.2063 204.506 64.7825 204.226 64.4767C203.946 64.1665 203.575 64.0114 203.112 64.0114C202.653 64.0114 202.282 64.1686 201.998 64.4832C201.714 64.7978 201.572 65.2151 201.572 65.735L200.956 65.368C200.956 64.9092 201.065 64.4985 201.283 64.1359C201.502 63.7732 201.799 63.4892 202.175 63.2839C202.55 63.0742 202.976 62.9693 203.453 62.9693C203.929 62.9693 204.344 63.0698 204.698 63.2708C205.052 63.4718 205.325 63.7601 205.517 64.1359C205.709 64.5073 205.805 64.9507 205.805 65.4663L205.799 70.2308H204.639ZM214.42 70.4209C213.577 70.4209 212.884 70.2374 212.343 69.8704C211.805 69.499 211.475 68.9813 211.353 68.3171L212.546 68.1271C212.642 68.5116 212.862 68.8174 213.208 69.0446C213.553 69.2674 213.981 69.3789 214.492 69.3789C214.977 69.3789 215.357 69.2784 215.633 69.0774C215.908 68.8764 216.045 68.6033 216.045 68.2582C216.045 68.0572 216 67.8955 215.908 67.7732C215.816 67.6465 215.626 67.5285 215.338 67.4193C215.054 67.3101 214.623 67.179 214.047 67.0261C213.422 66.86 212.93 66.6875 212.572 66.5083C212.214 66.3292 211.958 66.1217 211.805 65.8857C211.652 65.6498 211.576 65.3636 211.576 65.0272C211.576 64.6121 211.689 64.2495 211.917 63.9393C212.144 63.6247 212.461 63.3822 212.867 63.2118C213.278 63.0414 213.754 62.9562 214.296 62.9562C214.833 62.9562 215.314 63.0414 215.737 63.2118C216.161 63.3822 216.502 63.6247 216.76 63.9393C217.022 64.2495 217.177 64.6121 217.225 65.0272L216.032 65.2435C215.975 64.8633 215.792 64.5641 215.482 64.3456C215.176 64.1271 214.781 64.0114 214.296 63.9983C213.837 63.9808 213.463 64.0616 213.175 64.2407C212.891 64.4199 212.749 64.6624 212.749 64.9682C212.749 65.1386 212.801 65.285 212.906 65.4073C213.015 65.5296 213.214 65.6454 213.503 65.7546C213.795 65.8639 214.219 65.9884 214.774 66.1282C215.399 66.2855 215.89 66.4581 216.249 66.646C216.611 66.8295 216.869 67.0479 217.022 67.3013C217.175 67.5504 217.251 67.8584 217.251 68.2254C217.251 68.907 217 69.4444 216.498 69.8376C215.995 70.2265 215.303 70.4209 214.42 70.4209Z" fill="white"/>
<path d="M105.759 25.8902C100.033 25.8902 98.9279 25.3879 95.6128 25.3879C88.7315 25.3879 84.0602 29.6573 84.0602 35.735C84.0602 41.3104 88.9826 45.5799 95.3617 45.5799C96.0147 45.5799 96.6174 45.5296 97.2202 45.4794C99.9827 45.7808 101.64 47.7899 101.64 50.653C101.64 53.7169 99.2795 55.8265 95.6631 55.8265C88.5306 55.7763 89.9872 48.0411 86.2703 48.0411C84.6127 48.0411 83.8593 49.1963 83.8593 50.4018C83.8593 53.9681 87.8776 57.685 95.4621 57.685C102.394 57.685 107.567 54.8722 107.567 50.4018C107.567 47.6392 105.709 45.3789 101.339 44.3744C104.905 42.7168 107.165 39.5022 107.165 35.4839C107.165 33.0227 105.86 30.461 104.001 28.8034C105.508 28.4016 107.316 28.6025 107.919 27.2966C108.371 26.5431 107.969 25.8902 105.759 25.8902ZM89.8867 33.1733C89.8867 29.7578 91.695 27.2966 94.6585 27.2966C98.6768 27.2966 101.339 32.219 101.339 37.6939C101.339 41.1095 99.4302 43.6209 96.316 43.6209C92.8 43.6209 89.8867 38.8492 89.8867 33.1733ZM112.191 50H119.826C120.479 50 120.931 49.6986 120.931 49.2466V49.0959C120.931 47.9406 118.872 47.7899 118.872 45.831V13.1823C118.872 12.4288 118.219 11.8261 117.064 12.3786L111.991 14.8901C111.488 15.1412 111.137 15.3421 111.137 15.7942V15.9449C111.137 16.849 112.995 17.2508 112.995 19.3604V45.831C112.995 47.7899 111.137 47.9406 111.137 49.0959V49.2466C111.137 49.6986 111.539 50 112.191 50ZM137.499 50.5023C144.782 50.5023 149.604 44.9771 149.604 38.0958C149.604 31.1642 144.279 25.3879 136.343 25.3879C129.462 25.3879 123.887 30.5614 123.887 37.6939C123.887 44.3744 128.96 50.5023 137.499 50.5023ZM138.252 48.5936C133.179 48.5936 129.814 41.9634 129.814 35.735C129.814 30.2098 132.124 27.2966 135.69 27.2966C140.311 27.2966 143.677 33.1231 143.677 40.1552C143.677 45.5799 141.366 48.5936 138.252 48.5936ZM167.046 25.3879C164.334 25.3879 161.973 26.3422 160.416 28.05V13.2325C160.416 12.1777 159.663 11.8763 158.608 12.3786L153.434 14.8398C152.681 15.1914 152.43 15.3923 152.43 15.8444V15.9951C152.43 17.1001 154.59 17.2508 154.59 19.4106V45.7808C154.59 47.7899 152.681 48.0913 152.681 49.1461V49.2968C152.681 49.7489 153.033 50 153.585 50L159.01 50.1005C159.663 50.1005 160.014 49.7991 160.014 49.1461L159.964 47.3379C161.672 49.347 164.083 50.5023 167.097 50.5023C173.426 50.5023 178.7 45.178 178.7 37.5433C178.7 29.9085 173.074 25.3879 167.046 25.3879ZM166.393 48.5936C163.33 48.5936 160.416 45.1278 160.416 41.4611V32.9724C160.416 29.7578 162.777 27.2966 165.59 27.2966C169.91 27.2966 172.773 32.219 172.773 39.4017C172.773 45.2785 170.362 48.5936 166.393 48.5936ZM203.52 45.4794L202.515 35.8355C201.812 29.356 197.744 25.3879 191.415 25.3879C186.04 25.3879 182.123 27.8491 182.123 31.0135C182.123 32.4199 183.077 33.324 184.584 33.324C187.748 33.324 186.744 27.2463 191.415 27.2463C194.931 27.2463 196.136 30.2601 196.689 36.0866L196.789 37.0912C195.433 36.0364 193.424 35.3834 190.963 35.3834C185.89 35.3834 181.771 37.9953 181.821 42.9177C181.821 47.8402 185.739 50.5023 191.214 50.5023C194.78 50.5023 197.041 49.1461 198.196 47.2876C198.397 49.7489 199.652 50.3014 202.214 50.3014C204.374 50.3014 206.283 50 206.283 49.0457C206.283 47.7397 203.872 48.7443 203.52 45.4794ZM192.872 48.5936C189.757 48.5936 187.748 45.6301 187.748 42.2145C187.748 39.2008 189.707 37.2921 192.47 37.2921C195.132 37.2921 197.041 39.1003 197.241 41.9634L197.392 43.5205C197.543 46.2328 195.684 48.5936 192.872 48.5936ZM209.019 50H216.654C217.307 50 217.759 49.6986 217.759 49.2466V49.0959C217.759 47.9406 215.7 47.7899 215.7 45.831V13.1823C215.7 12.4288 215.047 11.8261 213.892 12.3786L208.818 14.8901C208.316 15.1412 207.965 15.3421 207.965 15.7942V15.9449C207.965 16.849 209.823 17.2508 209.823 19.3604V45.831C209.823 47.7899 207.965 47.9406 207.965 49.0959V49.2466C207.965 49.6986 208.366 50 209.019 50Z" fill="white"/>
<circle cx="36.1636" cy="41.9498" r="36.1635" fill="white"/>
</svg>
