<svg width="117" height="126" viewBox="0 0 117 126" fill="none" xmlns="http://www.w3.org/2000/svg">
<path d="M32.5836 15.9234C32.5836 22.2322 27.1683 27.2785 20.7321 26.6655C15.1204 26.1302 11.0001 21.097 11.0001 15.4593V5.13164C11.0001 2.74666 12.9318 0.814941 15.3168 0.814941H28.2669C30.6518 0.814941 32.5836 2.74666 32.5836 5.13164V7.28999L36.9003 15.9234H32.5836Z" fill="#B6D2FF"/>
<path d="M6.10352e-05 36C6.10352e-05 31.0294 4.0295 27 9.00006 27H37.0001C41.9706 27 46.0001 31.0294 46.0001 36V69H9.00006C4.0295 69 6.10352e-05 64.9706 6.10352e-05 60V36Z" fill="#005DF2"/>
<path d="M22.2858 40L16.0001 27H28.0001L22.2858 40Z" fill="white"/>
<circle cx="39.0001" cy="34" r="7" fill="#005DF2"/>
<circle cx="58.0001" cy="53" r="7" fill="#005DF2"/>
<path d="M53.0001 57.5L34.0001 39L43.5001 28.5L62.0001 47.5L53.0001 57.5Z" fill="#005DF2"/>
<path d="M84.4166 15.9234C84.4166 22.2322 89.8319 27.2785 96.2681 26.6655C101.88 26.1302 106 21.097 106 15.4593V5.13164C106 2.74666 104.068 0.814941 101.683 0.814941H88.7333C86.3483 0.814941 84.4166 2.74666 84.4166 5.13164V7.28999L80.0999 15.9234H84.4166Z" fill="#B6D2FF"/>
<path d="M117 36C117 31.0294 112.971 27 108 27H80.0001C75.0295 27 71.0001 31.0294 71.0001 36V69H108C112.971 69 117 64.9706 117 60V36Z" fill="#5496FF"/>
<path d="M94.7143 40L101 27H89.0001L94.7143 40Z" fill="white"/>
<circle r="7" transform="matrix(-1 0 0 1 78.0001 34)" fill="#5496FF"/>
<circle r="7" transform="matrix(-1 0 0 1 59.0001 53)" fill="#5496FF"/>
<path d="M64.0001 57.5L83.0001 39L73.5001 28.5L55.0001 47.5L64.0001 57.5Z" fill="#5496FF"/>
<path d="M1.00006 63H117V72H1.00006V63Z" fill="#454A6D"/>
<path d="M7.00006 72H111V83H7.00006V72Z" fill="#33385C"/>
<path d="M1.00006 83H117V126H1.00006V83Z" fill="#454A6D"/>
</svg>
