<svg width="126" height="126" viewBox="0 0 126 126" fill="none" xmlns="http://www.w3.org/2000/svg">
<path d="M61.2495 0.814941H126V72.0405H61.2495V0.814941Z" fill="white"/>
<path d="M0.814758 63.4071H78.5153V72.0405H0.814758V63.4071Z" fill="#454A6D"/>
<path d="M48.3 63.407V46.1402L55.1463 52.9865C58.5177 56.3579 63.9848 56.3579 67.3561 52.9865L82.8336 37.5068L74.2002 28.8734L61.2501 41.8235L50.8836 29.7303C49.2432 27.8158 46.8496 26.7151 44.3287 26.7151H13.7665C8.99866 26.7151 5.13306 30.5807 5.13306 35.3485V54.7736C5.13306 59.5414 8.99866 63.407 13.7665 63.407H48.3Z" fill="#005DF2"/>
<path d="M35.3487 63.407H31.032V54.7736C31.032 53.5822 30.0629 52.6152 28.8736 52.6152H15.9235V43.9818H20.2402V48.2985H28.8736C32.4435 48.2985 35.3487 51.2036 35.3487 54.7736V63.407Z" fill="#5496FF"/>
<path d="M37.507 15.9234C37.507 22.2322 32.0917 27.2785 25.6555 26.6655C20.0438 26.1302 15.9235 21.097 15.9235 15.4593V5.13164C15.9235 2.74666 17.8552 0.814941 20.2402 0.814941H33.1903C35.5753 0.814941 37.507 2.74666 37.507 5.13164V7.28999L41.8237 15.9234H37.507Z" fill="#B6D2FF"/>
<path d="M20.2417 26.7151L26.7167 39.6652L33.1918 26.7151H20.2417Z" fill="white"/>
<path d="M102.256 18.3365L89.3059 11.8615L77.3205 17.8552L75.391 13.9918L89.3059 7.0354L102.256 13.5104L114.241 7.51671L116.171 11.3802L102.256 18.3365Z" fill="#454A6D"/>
<path d="M74.8193 29.512L87.767 16.5643L90.8189 19.6162L77.8712 32.5639L74.8193 29.512Z" fill="#454A6D"/>
<path d="M91.4633 31.0317H117.364V35.3484H91.4633V31.0317Z" fill="#454A6D"/>
<path d="M91.4633 39.6653H117.364V43.982H91.4633V39.6653Z" fill="#454A6D"/>
<path d="M91.4633 48.2986H117.364V52.6153H91.4633V48.2986Z" fill="#454A6D"/>
<path d="M91.4633 56.9321H117.364V61.2488H91.4633V56.9321Z" fill="#454A6D"/>
<path d="M18.079 102.257C12.1198 102.257 7.28729 107.09 7.28729 113.049V125.999H28.8708V113.049C28.8708 107.09 24.0382 102.257 18.079 102.257Z" fill="#5496FF"/>
<path d="M18.0781 102.257C22.8462 102.257 26.7115 98.392 26.7115 93.6239C26.7115 88.8558 22.8462 84.9905 18.0781 84.9905C13.31 84.9905 9.4447 88.8558 9.4447 93.6239C9.4447 98.392 13.31 102.257 18.0781 102.257Z" fill="#5496FF"/>
<path d="M48.2964 102.257C42.3372 102.257 37.5046 107.09 37.5046 113.049V125.999H59.0881V113.049C59.0881 107.09 54.2556 102.257 48.2964 102.257Z" fill="#5496FF"/>
<path d="M48.2954 102.257C53.0635 102.257 56.9288 98.392 56.9288 93.6239C56.9288 88.8558 53.0635 84.9905 48.2954 84.9905C43.5273 84.9905 39.662 88.8558 39.662 93.6239C39.662 98.392 43.5273 102.257 48.2954 102.257Z" fill="#5496FF"/>
<path d="M78.5138 102.257C72.5546 102.257 67.722 107.09 67.722 113.049V125.999H89.3055V113.049C89.3055 107.09 84.473 102.257 78.5138 102.257Z" fill="#5496FF"/>
<path d="M78.5129 102.257C83.2809 102.257 87.1463 98.392 87.1463 93.6239C87.1463 88.8558 83.2809 84.9905 78.5129 84.9905C73.7448 84.9905 69.8795 88.8558 69.8795 93.6239C69.8795 98.392 73.7448 102.257 78.5129 102.257Z" fill="#5496FF"/>
<path d="M108.728 102.257C102.768 102.257 97.9359 107.09 97.9359 113.049V125.999H119.519V113.049C119.519 107.09 114.687 102.257 108.728 102.257Z" fill="#5496FF"/>
<path d="M108.73 102.257C113.498 102.257 117.364 98.392 117.364 93.6239C117.364 88.8558 113.498 84.9905 108.73 84.9905C103.962 84.9905 100.097 88.8558 100.097 93.6239C100.097 98.392 103.962 102.257 108.73 102.257Z" fill="#5496FF"/>
<path d="M5.13306 72.0404H74.2002V82.8322H5.13306V72.0404Z" fill="#33385C"/>
</svg>
